<?xml version="1.0" encoding="UTF-8" standalone="no"?>
<!-- Created with Inkscape (http://www.inkscape.org/) -->

<svg
   version="1.1"
   id="svg1"
   width="368"
   height="128"
   viewBox="0 0 368 128"
   sodipodi:docname="logo.eps"
   xmlns:inkscape="http://www.inkscape.org/namespaces/inkscape"
   xmlns:sodipodi="http://sodipodi.sourceforge.net/DTD/sodipodi-0.dtd"
   xmlns="http://www.w3.org/2000/svg"
   xmlns:svg="http://www.w3.org/2000/svg">
  <defs
     id="defs1" />
  <sodipodi:namedview
     id="namedview1"
     pagecolor="#ffffff"
     bordercolor="#000000"
     borderopacity="0.25"
     inkscape:showpageshadow="2"
     inkscape:pageopacity="0.0"
     inkscape:pagecheckerboard="0"
     inkscape:deskcolor="#d1d1d1">
    <inkscape:page
       x="0"
       y="0"
       inkscape:label="1"
       id="page1"
       width="368"
       height="128"
       margin="0"
       bleed="0" />
  </sodipodi:namedview>
  <g
     id="g1"
     inkscape:groupmode="layer"
     inkscape:label="1">
    <path
       id="path1"
       d="m 325.469,131.801 26.41,68.789 h 10 l 28.043,-68.789 h -10.391 l -7.972,20.859 H 342.66 l -7.461,-20.859 z m 19.883,28.238 h 23.437 l -7.187,19.102 c -2.223,5.781 -3.872,10.589 -4.922,14.339 -0.942,-4.531 -2.192,-8.871 -3.828,-13.281 z m 50.507,40.551 h 8.48047 V 131.8009 H 395.859 Z m 80.782,-50.512 8.238,-1.168 c -0.859,-5.672 -3.16,-10.082 -6.91,-13.359 -3.75,-3.172 -8.36,-4.813 -13.707,-4.813 -6.84,0 -12.313,2.231 -16.453,6.723 -4.137,4.418 -6.25,10.777 -6.25,19.098 0,5.39 0.902,10 2.703,14.031 1.758,4.058 4.527,7.109 8.16,9.14 3.558,2.032 7.617,2.969 11.84,2.969 5.347,0 9.879,-1.328 13.238,-4.109 3.48,-2.692 5.66,-6.641 6.641,-11.641 l -8.161,-1.25 c -0.781,3.36 -2.109,5.86 -4.14,7.582 -2.039,1.641 -4.418,2.5 -7.192,2.5 -4.339,0 -7.808,-1.519 -10.386,-4.492 -2.703,-3.09 -4.032,-7.891 -4.032,-14.488 0,-6.723 1.25,-11.571 3.829,-14.61 2.582,-2.972 5.98,-4.531 10.082,-4.531 3.281,0 6.058,1.051 8.281,3.078 2.187,2.032 3.629,5.082 4.219,9.34 z m 12.308,6.723 c 0,9.097 2.571,15.929 7.653,20.429 4.339,3.668 9.527,5.469 15.668,5.469 6.91,0 12.5,-2.187 16.789,-6.719 4.339,-4.421 6.531,-10.671 6.531,-18.519 0,-6.441 -0.942,-11.441 -2.86,-15.082 -1.949,-3.668 -4.718,-6.52 -8.351,-8.551 -3.758,-2.109 -7.699,-3.09 -12.109,-3.09 -6.918,0 -12.579,2.231 -16.918,6.723 -4.301,4.418 -6.403,10.859 -6.403,19.34 z m 8.629,-0.121 c 0,-6.328 1.442,-11.129 4.223,-14.219 2.769,-3.16 6.25,-4.801 10.469,-4.801 4.21,0 7.652,1.641 10.539,4.801 2.812,3.16 4.14,7.969 4.14,14.488 0,6.172 -1.437,10.86 -4.219,14.031 -2.808,3.161 -6.25,4.719 -10.46,4.719 -4.219,0 -7.7,-1.558 -10.469,-4.719 -2.781,-3.171 -4.223,-7.859 -4.223,-14.3 z m 47.934,-24.879 v 49.84 h 7.578 v -6.993 c 1.519,2.383 3.629,4.411 6.25,5.864 2.57,1.437 5.539,2.187 8.82,2.187 3.641,0 6.719,-0.75 9.031,-2.308 2.379,-1.52 4.02,-3.629 5,-6.411 4.02,5.86 9.098,8.719 15.43,8.719 5,0 8.859,-1.328 11.438,-4.109 2.703,-2.692 4.031,-6.949 4.031,-12.61 v -34.179 h -8.442 v 31.398 c 0,3.36 -0.269,5.781 -0.859,7.313 -0.508,1.437 -1.559,2.578 -3.008,3.547 -1.402,0.863 -3.051,1.332 -5.082,1.332 -3.429,0 -6.398,-1.129 -8.75,-3.442 -2.258,-2.418 -3.429,-6.051 -3.429,-11.25 v -28.898 h -8.442 v 32.379 c 0,3.75 -0.699,6.519 -2.027,8.441 -1.449,1.828 -3.641,2.77 -6.84,2.77 -2.262,0 -4.492,-0.551 -6.52,-1.801 -1.992,-1.25 -3.441,-3.078 -4.421,-5.578 -0.86,-2.391 -1.321,-5.864 -1.321,-10.352 v -25.859 z m 79.957,-19.102 v 68.942 h 7.691 v -6.52 c 1.84,2.5 3.828,4.41 6.141,5.66 2.301,1.25 5.109,1.918 8.277,1.918 4.301,0 8.043,-1.058 11.332,-3.25 3.16,-2.219 5.66,-5.308 7.301,-9.219 1.598,-4.058 2.5,-8.351 2.5,-13.16 0,-5 -0.902,-9.609 -2.691,-13.75 -1.84,-4.019 -4.54,-7.109 -7.969,-9.3 -3.563,-2.219 -7.231,-3.282 -11.063,-3.282 -2.769,0 -5.269,0.59 -7.578,1.84 -2.219,1.133 -4.058,2.582 -5.461,4.41 v -24.289 z m 7.691,43.711 c 0,-6.332 1.328,-11.058 3.828,-14.14 2.621,-3.051 5.782,-4.61 9.422,-4.61 3.75,0 7.031,1.641 9.61,4.801 2.691,3.16 4.019,8.09 4.019,14.687 0,6.372 -1.25,11.051 -3.91,14.223 -2.609,3.16 -5.66,4.719 -9.328,4.719 -3.563,0 -6.723,-1.641 -9.5,-5 -2.813,-3.36 -4.141,-8.281 -4.141,-14.68 z m 45.512,44.18 h 8.47656 V 131.8009 H 678.672 Z m 55.508,-52.66 8.75,-1.129 c -1.371,-5.082 -3.95,-9.031 -7.578,-11.84 -3.75,-2.77 -8.473,-4.223 -14.223,-4.223 -7.301,0 -13.039,2.231 -17.301,6.723 -4.297,4.527 -6.406,10.777 -6.406,18.828 0,8.359 2.109,14.883 6.406,19.492 4.332,4.61 9.922,6.918 16.832,6.918 6.61,0 12,-2.187 16.219,-6.801 4.211,-4.527 6.32,-10.859 6.32,-19.097 0,-0.512 0,-1.25 0,-2.231 h -37.148 c 0.277,-5.468 1.84,-9.609 4.609,-12.582 2.781,-2.886 6.25,-4.328 10.469,-4.328 3.09,0 5.672,0.86 7.851,2.5 2.231,1.641 3.95,4.219 5.2,7.77 z m -27.66,13.55 h 27.781 c -0.391,4.219 -1.449,7.309 -3.172,9.418 -2.688,3.243 -6.168,4.883 -10.469,4.883 -3.859,0 -7.109,-1.25 -9.719,-3.832 -2.703,-2.57 -4.101,-6.168 -4.421,-10.469 z m 65.39,-22.101 1.18,-7.469 c -2.43,-0.5 -4.539,-0.781 -6.328,-0.781 -3.09,0 -5.473,0.473 -7.114,1.449 -1.757,0.973 -2.886,2.301 -3.558,3.832 -0.699,1.641 -1.051,4.918 -1.051,10 v 28.711 h -6.25 v 6.52 h 6.25 v 12.308 l 8.441,5.071 v -17.379 h 8.43 v -6.52 h -8.43 v -29.18 c 0,-2.421 0.192,-3.953 0.469,-4.613 0.313,-0.777 0.781,-1.25 1.442,-1.719 0.66,-0.39 1.64,-0.589 2.89,-0.589 0.86,0 2.11,0.082 3.629,0.359 z m 40.942,-1.328 c -3.161,-2.699 -6.172,-4.5 -9.024,-5.672 -2.887,-1.051 -6.058,-1.641 -9.34,-1.641 -5.468,0 -9.687,1.371 -12.648,4.063 -2.969,2.578 -4.418,6.019 -4.418,10.16 0,2.418 0.547,4.73 1.598,6.719 1.179,2.031 2.621,3.55 4.46,4.8 1.79,1.25 3.821,2.11 6.008,2.782 1.723,0.386 4.223,0.898 7.621,1.25 6.801,0.777 11.801,1.758 15.082,2.886 0,1.133 0,1.911 0,2.223 0,3.438 -0.781,5.859 -2.421,7.188 -2.11,1.921 -5.391,2.89 -9.61,2.89 -4.031,0 -6.922,-0.66 -8.832,-2.109 -1.918,-1.36 -3.238,-3.86 -4.219,-7.418 l -8.238,1.168 c 0.738,3.558 1.988,6.449 3.707,8.558 1.762,2.192 4.262,3.832 7.5,5.082 3.281,1.168 7.031,1.719 11.332,1.719 4.211,0 7.692,-0.469 10.391,-1.527 2.648,-0.973 4.609,-2.223 5.859,-3.75 1.25,-1.524 2.11,-3.442 2.649,-5.781 0.312,-1.411 0.39,-4.02 0.39,-7.77 V 152.73 c 0,-7.851 0.199,-12.769 0.59,-14.878 0.27,-2.114 0.981,-4.141 2.031,-6.051 h -8.871 c -0.859,1.828 -1.328,3.859 -1.597,6.25 z m -0.661,18.75 c -3.089,-1.25 -7.703,-2.352 -13.832,-3.211 -3.48,-0.469 -5.98,-1.051 -7.418,-1.641 -1.453,-0.66 -2.5,-1.519 -3.363,-2.769 -0.738,-1.129 -1.129,-2.5 -1.129,-3.95 0,-2.261 0.852,-4.101 2.571,-5.621 1.718,-1.449 4.218,-2.23 7.5,-2.23 3.25,0 6.14,0.672 8.64,2.109 2.57,1.453 4.41,3.364 5.578,5.864 0.942,1.839 1.453,4.726 1.453,8.359 z m 21.481,-25 v 49.84 h 7.617 v -6.993 c 1.52,2.383 3.633,4.411 6.211,5.864 2.621,1.437 5.59,2.187 8.828,2.187 3.672,0 6.723,-0.75 9.024,-2.308 2.418,-1.52 4.058,-3.629 5,-6.411 4.058,5.86 9.136,8.719 15.468,8.719 5,0 8.828,-1.328 11.45,-4.109 2.652,-2.692 4.019,-6.949 4.019,-12.61 v -34.179 h -8.48 v 31.398 c 0,3.36 -0.27,5.781 -0.86,7.313 -0.469,1.437 -1.519,2.578 -2.969,3.547 -1.441,0.863 -3.039,1.332 -5.07,1.332 -3.441,0 -6.449,-1.129 -8.75,-3.442 -2.308,-2.418 -3.441,-6.051 -3.441,-11.25 v -28.898 h -8.481 v 32.379 c 0,3.75 -0.66,6.519 -1.988,8.441 -1.449,1.828 -3.672,2.77 -6.84,2.77 -2.301,0 -4.488,-0.551 -6.519,-1.801 -2.032,-1.25 -3.481,-3.078 -4.411,-5.578 -0.859,-2.391 -1.332,-5.864 -1.332,-10.352 v -25.859 z m 113.988,16.129 8.75,-1.129 c -1.332,-5.082 -3.949,-9.031 -7.582,-11.84 -3.75,-2.77 -8.476,-4.223 -14.219,-4.223 -7.308,0 -13.05,2.231 -17.308,6.723 -4.289,4.527 -6.403,10.777 -6.403,18.828 0,8.359 2.114,14.883 6.403,19.492 4.34,4.61 9.929,6.918 16.84,6.918 6.597,0 11.988,-2.187 16.211,-6.801 4.218,-4.527 6.328,-10.859 6.328,-19.097 0,-0.512 0,-1.25 0,-2.231 h -37.149 c 0.27,-5.468 1.84,-9.609 4.61,-12.582 2.769,-2.886 6.25,-4.328 10.468,-4.328 3.09,0 5.661,0.86 7.852,2.5 2.23,1.641 3.949,4.219 5.199,7.77 z M 920,161.48 h 27.77 c -0.391,4.219 -1.442,7.309 -3.161,9.418 -2.699,3.243 -6.168,4.883 -10.468,4.883 -3.871,0 -7.11,-1.25 -9.731,-3.832 -2.648,-2.57 -4.101,-6.168 -4.41,-10.469 z m 47.07,-29.679 v 49.84 h 7.578 v -7.11 c 3.633,5.508 8.942,8.168 15.864,8.168 2.968,0 5.738,-0.551 8.238,-1.648 2.5,-1.012 4.41,-2.461 5.66,-4.211 1.25,-1.719 2.11,-3.828 2.62,-6.25 0.27,-1.531 0.47,-4.301 0.47,-8.168 v -30.621 h -8.48 v 30.269 c 0,3.442 -0.27,6.051 -0.93,7.77 -0.668,1.64 -1.84,3.051 -3.442,4.031 -1.757,1.051 -3.668,1.52 -5.976,1.52 -3.551,0 -6.641,-1.129 -9.223,-3.442 -2.57,-2.219 -3.937,-6.519 -3.937,-12.969 v -27.179 z m 71.72,7.578 1.17,-7.469 c -2.42,-0.5 -4.53,-0.781 -6.33,-0.781 -3.08,0 -5.51,0.473 -7.11,1.449 -1.75,0.973 -2.89,2.301 -3.55,3.832 -0.67,1.641 -1.06,4.918 -1.06,10 v 28.711 h -6.25 v 6.52 h 6.25 v 12.308 l 8.44,5.071 v -17.379 h 8.44 v -6.52 h -8.44 v -29.18 c 0,-2.421 0.2,-3.953 0.47,-4.613 0.31,-0.777 0.78,-1.25 1.45,-1.719 0.66,-0.39 1.64,-0.589 2.89,-0.589 0.86,0 2.11,0.082 3.63,0.359 z m 5.19,17.422 c 0,9.097 2.58,15.929 7.7,20.429 4.3,3.668 9.49,5.469 15.62,5.469 6.96,0 12.5,-2.187 16.84,-6.719 4.3,-4.421 6.52,-10.671 6.52,-18.519 0,-6.441 -0.97,-11.441 -2.89,-15.082 -1.91,-3.668 -4.68,-6.52 -8.36,-8.551 -3.75,-2.109 -7.65,-3.09 -12.11,-3.09 -6.91,0 -12.57,2.231 -16.87,6.723 -4.34,4.418 -6.45,10.859 -6.45,19.34 z m 8.64,-0.121 c 0,-6.328 1.44,-11.129 4.26,-14.219 2.77,-3.16 6.21,-4.801 10.42,-4.801 4.26,0 7.7,1.641 10.59,4.801 2.77,3.16 4.14,7.969 4.14,14.488 0,6.172 -1.44,10.86 -4.26,14.031 -2.77,3.161 -6.21,4.719 -10.47,4.719 -4.21,0 -7.65,-1.558 -10.42,-4.719 -2.82,-3.171 -4.26,-7.859 -4.26,-14.3 z m 106.79,-24.879 v 6.359 c -3.16,-4.922 -7.77,-7.422 -13.9,-7.422 -3.95,0 -7.62,1.063 -10.98,3.282 -3.24,2.191 -5.86,5.281 -7.65,9.101 -1.84,3.949 -2.82,8.481 -2.82,13.559 0,5 0.86,9.492 2.5,13.55 1.64,4.032 4.14,7.11 7.5,9.219 3.28,2.192 6.99,3.25 11.06,3.25 2.97,0 5.66,-0.668 8.04,-1.918 2.31,-1.25 4.22,-2.89 5.67,-4.883 v 24.692 h 8.47 v -68.789 z m -26.68,24.879 c 0,-6.328 1.33,-11.129 4.03,-14.301 2.69,-3.16 5.86,-4.719 9.61,-4.719 3.63,0 6.79,1.559 9.41,4.531 2.58,2.969 3.83,7.579 3.83,13.829 0,6.71 -1.37,11.71 -3.95,14.878 -2.57,3.243 -5.86,4.801 -9.68,4.801 -3.83,0 -6.92,-1.558 -9.5,-4.609 -2.5,-2.969 -3.75,-7.891 -3.75,-14.41 z m 81.92,-8.75 8.71,-1.129 c -1.33,-5.082 -3.91,-9.031 -7.58,-11.84 -3.75,-2.77 -8.44,-4.223 -14.22,-4.223 -7.3,0 -13.04,2.231 -17.26,6.723 -4.34,4.527 -6.45,10.777 -6.45,18.828 0,8.359 2.11,14.883 6.45,19.492 4.29,4.61 9.88,6.918 16.79,6.918 6.64,0 12,-2.187 16.21,-6.801 4.26,-4.527 6.37,-10.859 6.37,-19.097 0,-0.512 0,-1.25 0,-2.231 h -37.19 c 0.32,-5.468 1.84,-9.609 4.61,-12.582 2.82,-2.886 6.25,-4.328 10.47,-4.328 3.09,0 5.67,0.86 7.89,2.5 2.19,1.641 3.95,4.219 5.2,7.77 z m -27.66,13.55 h 27.74 c -0.39,4.219 -1.45,7.309 -3.17,9.418 -2.69,3.243 -6.17,4.883 -10.47,4.883 -3.82,0 -7.11,-1.25 -9.68,-3.832 -2.7,-2.57 -4.14,-6.168 -4.42,-10.469 z m 46.84,39.11 h 8.4688 v -68.7891 h -8.4688 z m 61.83,-68.789 -18.78,49.84 h 9.02 l 10.66,-29.84 c 1.14,-3.172 2.19,-6.571 3.24,-10 0.71,2.578 1.72,5.777 3.09,9.41 l 11.13,30.43 h 8.64 l -18.79,-49.84 z m 31.25,25 c 0,9.097 2.58,15.929 7.66,20.429 4.34,3.668 9.53,5.469 15.66,5.469 6.92,0 12.47,-2.187 16.8,-6.719 4.34,-4.421 6.52,-10.671 6.52,-18.519 0,-6.441 -0.93,-11.441 -2.89,-15.082 -1.91,-3.668 -4.68,-6.52 -8.32,-8.551 -3.75,-2.109 -7.69,-3.09 -12.11,-3.09 -6.91,0 -12.57,2.231 -16.91,6.723 -4.3,4.418 -6.41,10.859 -6.41,19.34 z m 8.64,-0.121 c 0,-6.328 1.44,-11.129 4.22,-14.219 2.77,-3.16 6.25,-4.801 10.46,-4.801 4.22,0 7.66,1.641 10.55,4.801 2.81,3.16 4.14,7.969 4.14,14.488 0,6.172 -1.44,10.86 -4.22,14.031 -2.81,3.161 -6.25,4.719 -10.47,4.719 -4.21,0 -7.69,-1.558 -10.46,-4.719 -2.78,-3.171 -4.22,-7.859 -4.22,-14.3 z m 44.57,-10 8.32,1.371 c 0.51,-3.36 1.83,-5.86 3.94,-7.699 2.11,-1.832 5.2,-2.692 9.03,-2.692 3.82,0 6.71,0.781 8.67,2.418 1.8,1.524 2.77,3.363 2.77,5.543 0,1.84 -0.86,3.359 -2.5,4.457 -1.25,0.742 -4.14,1.723 -8.63,2.852 -6.25,1.519 -10.47,2.89 -12.89,4.019 -2.38,1.172 -4.22,2.821 -5.47,4.813 -1.13,1.91 -1.84,4.218 -1.84,6.636 0,2.192 0.51,4.223 1.57,6.133 1.05,1.918 2.38,3.481 4.1,4.731 1.36,0.937 3.08,1.789 5.39,2.5 2.3,0.66 4.69,0.937 7.3,0.937 3.83,0 7.31,-0.551 10.28,-1.719 2.96,-1.058 5.07,-2.582 6.52,-4.531 1.37,-1.918 2.38,-4.5 2.89,-7.777 l -8.28,-1.133 c -0.35,2.582 -1.45,4.609 -3.24,6.051 -1.72,1.531 -4.34,2.191 -7.58,2.191 -3.87,0 -6.64,-0.66 -8.28,-1.91 -1.64,-1.25 -2.5,-2.781 -2.5,-4.492 0,-1.098 0.39,-2.039 1.05,-3.008 0.71,-0.859 1.72,-1.601 3.21,-2.191 0.85,-0.309 3.32,-1.059 7.46,-2.11 5.97,-1.64 10.07,-3.011 12.5,-3.949 2.38,-1.051 4.21,-2.5 5.54,-4.41 1.37,-1.91 2.03,-4.332 2.03,-7.231 0,-2.769 -0.78,-5.46 -2.5,-7.96 -1.64,-2.469 -3.94,-4.418 -7.1,-5.75 -3.05,-1.36 -6.53,-2.032 -10.47,-2.032 -6.45,0 -11.41,1.371 -14.77,4.063 -3.48,2.66 -5.59,6.609 -6.52,11.879 z m 69.68,-7.301 1.18,-7.469 c -2.43,-0.5 -4.53,-0.781 -6.33,-0.781 -3.09,0 -5.51,0.473 -7.11,1.449 -1.76,0.973 -2.89,2.301 -3.56,3.832 -0.7,1.641 -1.09,4.918 -1.09,10 v 28.711 h -6.21 v 6.52 h 6.21 v 12.308 l 8.48,5.071 v -17.379 h 8.43 v -6.52 h -8.43 v -29.18 c 0,-2.421 0.19,-3.953 0.47,-4.613 0.31,-0.777 0.78,-1.25 1.44,-1.719 0.67,-0.39 1.64,-0.589 2.89,-0.589 0.86,0 2.11,0.082 3.63,0.359 z m 8.29,-7.578 v 49.84 h 7.57 v -7.582 c 1.92,3.48 3.75,5.863 5.39,6.921 1.61,1.168 3.44,1.719 5.47,1.719 2.78,0 5.67,-0.859 8.64,-2.66 l -2.97,-7.809 c -2.11,1.168 -4.14,1.75 -6.17,1.75 -1.8,0 -3.56,-0.582 -4.97,-1.64 -1.44,-1.168 -2.5,-2.692 -3.08,-4.61 -0.98,-2.96 -1.45,-6.32 -1.45,-9.921 v -26.008 z m 28.9,25 c 0,9.097 2.58,15.929 7.66,20.429 4.33,3.668 9.53,5.469 15.66,5.469 6.92,0 12.5,-2.187 16.8,-6.719 4.34,-4.421 6.52,-10.671 6.52,-18.519 0,-6.441 -0.93,-11.441 -2.85,-15.082 -1.91,-3.668 -4.73,-6.52 -8.36,-8.551 -3.75,-2.109 -7.69,-3.09 -12.11,-3.09 -6.91,0 -12.58,2.231 -16.91,6.723 -4.3,4.418 -6.41,10.859 -6.41,19.34 z m 8.63,-0.121 c 0,-6.328 1.45,-11.129 4.22,-14.219 2.78,-3.16 6.25,-4.801 10.47,-4.801 4.22,0 7.7,1.641 10.59,4.801 2.77,3.16 4.1,7.969 4.1,14.488 0,6.172 -1.45,10.86 -4.22,14.031 -2.77,3.161 -6.25,4.719 -10.47,4.719 -4.22,0 -7.69,-1.558 -10.47,-4.719 -2.77,-3.171 -4.22,-7.859 -4.22,-14.3 z m 76.8,-24.879 v 43.32 h -7.46 v 6.52 h 7.46 v 4.808 c 0,5 1.1,8.75 3.2,11.321 2.19,2.582 5.55,3.949 10.16,3.949 3.09,0 5.98,-0.391 8.56,-1.059 l -1.33,-7.109 c -1.64,0.32 -3.17,0.398 -4.53,0.398 -2.89,0 -4.89,-0.59 -5.94,-1.719 -1.06,-1.179 -1.64,-3.558 -1.64,-7.308 v -3.281 h 9.69 v -6.52 h -9.69 v -43.32 z m 24.42,68.789 h 8.4297 v -9.60938 h -8.4297 z m 0,-18.949 h 8.4297 v -49.8398 h -8.4297 z m 21.21,18.949 h 8.4688 v -68.7891 h -8.4688 z m 55.5,-52.66 8.75,-1.129 c -1.32,-5.082 -3.94,-9.031 -7.57,-11.84 -3.75,-2.77 -8.44,-4.223 -14.22,-4.223 -7.31,0 -13.05,2.231 -17.31,6.723 -4.29,4.527 -6.4,10.777 -6.4,18.828 0,8.359 2.11,14.883 6.4,19.492 4.34,4.61 9.92,6.918 16.84,6.918 6.6,0 11.99,-2.187 16.21,-6.801 4.22,-4.527 6.33,-10.859 6.33,-19.097 0,-0.512 0,-1.25 0,-2.231 h -37.15 c 0.27,-5.468 1.84,-9.609 4.61,-12.582 2.77,-2.886 6.25,-4.328 10.47,-4.328 3.08,0 5.66,0.86 7.89,2.5 2.19,1.641 3.9,4.219 5.15,7.77 z m -27.65,13.55 h 27.77 c -0.39,4.219 -1.44,7.309 -3.16,9.418 -2.7,3.243 -6.17,4.883 -10.47,4.883 -3.87,0 -7.11,-1.25 -9.73,-3.832 -2.65,-2.57 -4.1,-6.168 -4.41,-10.469 z m 107.77,-13.55 8.71,-1.129 c -1.33,-5.082 -3.9,-9.031 -7.58,-11.84 -3.75,-2.77 -8.43,-4.223 -14.21,-4.223 -7.31,0 -13.05,2.231 -17.27,6.723 -4.34,4.527 -6.44,10.777 -6.44,18.828 0,8.359 2.1,14.883 6.44,19.492 4.3,4.61 9.88,6.918 16.8,6.918 6.64,0 11.99,-2.187 16.25,-6.801 4.22,-4.527 6.33,-10.859 6.33,-19.097 0,-0.512 0,-1.25 0,-2.231 h -37.19 c 0.31,-5.468 1.83,-9.609 4.61,-12.582 2.77,-2.886 6.25,-4.328 10.47,-4.328 3.08,0 5.66,0.86 7.89,2.5 2.18,1.641 3.94,4.219 5.19,7.77 z m -27.65,13.55 h 27.73 c -0.39,4.219 -1.45,7.309 -3.16,9.418 -2.7,3.243 -6.14,4.883 -10.47,4.883 -3.83,0 -7.11,-1.25 -9.69,-3.832 -2.7,-2.57 -4.14,-6.168 -4.41,-10.469 z m 46.83,39.11 h 8.4766 v -68.7891 h -8.4766 z m 21.53,0 h 8.4297 v -9.60938 h -8.4297 z m 0,-18.949 h 8.4297 v -49.8398 h -8.4297 z m 21.32,-49.84 v 49.84 h 7.58 v -6.993 c 1.52,2.383 3.63,4.411 6.25,5.864 2.58,1.437 5.55,2.187 8.83,2.187 3.63,0 6.72,-0.75 9.02,-2.308 2.39,-1.52 4.03,-3.629 5,-6.411 4.03,5.86 9.1,8.719 15.47,8.719 4.96,0 8.83,-1.328 11.41,-4.109 2.69,-2.692 4.02,-6.949 4.02,-12.61 v -34.179 h -8.44 v 31.398 c 0,3.36 -0.27,5.781 -0.86,7.313 -0.46,1.437 -1.52,2.578 -2.96,3.547 -1.45,0.863 -3.09,1.332 -5.08,1.332 -3.48,0 -6.45,-1.129 -8.75,-3.442 -2.31,-2.418 -3.48,-6.051 -3.48,-11.25 v -28.898 h -8.44 v 32.379 c 0,3.75 -0.66,6.519 -2.03,8.441 -1.4,1.828 -3.63,2.77 -6.79,2.77 -2.31,0 -4.54,-0.551 -6.53,-1.801 -2.03,-1.25 -3.47,-3.078 -4.41,-5.578 -0.9,-2.391 -1.37,-5.864 -1.37,-10.352 v -25.859 z m 80,68.789 h 8.4414 v -9.60938 H 1895.7 Z m 0,-18.949 h 8.4414 V 131.8012 H 1895.7 Z m 21.29,-49.84 v 49.84 h 7.62 v -7.11 c 3.63,5.508 8.91,8.168 15.82,8.168 2.97,0 5.78,-0.551 8.28,-1.648 2.46,-1.012 4.41,-2.461 5.67,-4.211 1.24,-1.719 2.1,-3.828 2.57,-6.25 0.28,-1.531 0.47,-4.301 0.47,-8.168 v -30.621 h -8.44 v 30.269 c 0,3.442 -0.27,6.051 -0.97,7.77 -0.67,1.64 -1.8,3.051 -3.44,4.031 -1.72,1.051 -3.63,1.52 -5.98,1.52 -3.51,0 -6.6,-1.129 -9.21,-3.442 -2.58,-2.219 -3.91,-6.519 -3.91,-12.969 v -27.179 z m 85.98,6.25 c -3.17,-2.699 -6.17,-4.5 -9.02,-5.672 -2.9,-1.051 -6.06,-1.641 -9.34,-1.641 -5.47,0 -9.69,1.371 -12.66,4.063 -3,2.578 -4.41,6.019 -4.41,10.16 0,2.418 0.55,4.73 1.6,6.719 1.17,2.031 2.62,3.55 4.41,4.8 1.84,1.25 3.87,2.11 6.06,2.782 1.76,0.386 4.26,0.898 7.62,1.25 6.79,0.777 11.79,1.758 15.04,2.886 0,1.133 0,1.911 0,2.223 0,3.438 -0.75,5.859 -2.39,7.188 -2.11,1.921 -5.39,2.89 -9.61,2.89 -4.02,0 -6.91,-0.66 -8.82,-2.109 -1.92,-1.36 -3.29,-3.86 -4.22,-7.418 l -8.28,1.168 c 0.78,3.558 2.03,6.449 3.75,8.558 1.75,2.192 4.21,3.832 7.5,5.082 3.28,1.168 7.03,1.719 11.32,1.719 4.22,0 7.7,-0.469 10.39,-1.527 2.7,-0.973 4.61,-2.223 5.86,-3.75 1.25,-1.524 2.11,-3.442 2.7,-5.781 0.27,-1.411 0.35,-4.02 0.35,-7.77 V 152.73 c 0,-7.851 0.2,-12.769 0.59,-14.878 0.27,-2.114 0.93,-4.141 2.03,-6.051 h -8.83 c -0.9,1.828 -1.37,3.859 -1.64,6.25 z m -0.7,18.75 c -3.05,-1.25 -7.66,-2.352 -13.79,-3.211 -3.48,-0.469 -5.98,-1.051 -7.43,-1.641 -1.44,-0.66 -2.5,-1.519 -3.35,-2.769 -0.79,-1.129 -1.14,-2.5 -1.14,-3.95 0,-2.261 0.86,-4.101 2.58,-5.621 1.72,-1.449 4.22,-2.23 7.5,-2.23 3.24,0 6.13,0.672 8.63,2.109 2.58,1.453 4.42,3.364 5.59,5.864 0.94,1.839 1.41,4.726 1.41,8.359 z m 21.44,-25 v 49.84 h 7.58 v -7.582 c 1.91,3.48 3.75,5.863 5.35,6.921 1.64,1.168 3.48,1.719 5.51,1.719 2.77,0 5.66,-0.859 8.63,-2.66 l -2.97,-7.809 c -2.11,1.168 -4.14,1.75 -6.17,1.75 -1.8,0 -3.55,-0.582 -5,-1.64 -1.41,-1.168 -2.46,-2.692 -3.05,-4.61 -0.97,-2.96 -1.44,-6.32 -1.44,-9.921 v -26.008 z m 66.06,16.129 8.75,-1.129 c -1.37,-5.082 -3.95,-9.031 -7.58,-11.84 -3.75,-2.77 -8.48,-4.223 -14.22,-4.223 -7.31,0 -13.09,2.231 -17.31,6.723 -4.29,4.527 -6.4,10.777 -6.4,18.828 0,8.359 2.11,14.883 6.4,19.492 4.34,4.61 9.89,6.918 16.8,6.918 6.64,0 12.03,-2.187 16.25,-6.801 4.22,-4.527 6.33,-10.859 6.33,-19.097 0,-0.512 0,-1.25 0,-2.231 h -37.15 c 0.27,-5.468 1.8,-9.609 4.61,-12.582 2.77,-2.886 6.21,-4.328 10.47,-4.328 3.05,0 5.66,0.86 7.85,2.5 2.23,1.641 3.95,4.219 5.2,7.77 z m -27.66,13.55 h 27.73 c -0.35,4.219 -1.4,7.309 -3.16,9.418 -2.7,3.243 -6.13,4.883 -10.47,4.883 -3.83,0 -7.11,-1.25 -9.69,-3.832 -2.69,-2.57 -4.14,-6.168 -4.41,-10.469 z m 73.55,39.11 h 8.4414 v -68.7891 h -8.4414 z m 55.51,-52.66 8.75,-1.129 c -1.37,-5.082 -3.94,-9.031 -7.58,-11.84 -3.75,-2.77 -8.47,-4.223 -14.22,-4.223 -7.3,0 -13.04,2.231 -17.3,6.723 -4.3,4.527 -6.44,10.777 -6.44,18.828 0,8.359 2.14,14.883 6.44,19.492 4.34,4.61 9.88,6.918 16.84,6.918 6.6,0 11.99,-2.187 16.21,-6.801 4.22,-4.527 6.33,-10.859 6.33,-19.097 0,-0.512 0,-1.25 0,-2.231 h -37.15 c 0.27,-5.468 1.79,-9.609 4.61,-12.582 2.77,-2.886 6.25,-4.328 10.46,-4.328 3.05,0 5.67,0.86 7.86,2.5 2.22,1.641 3.94,4.219 5.19,7.77 z m -27.65,13.55 h 27.77 c -0.39,4.219 -1.45,7.309 -3.2,9.418 -2.7,3.243 -6.14,4.883 -10.43,4.883 -3.87,0 -7.11,-1.25 -9.73,-3.832 -2.7,-2.57 -4.1,-6.168 -4.41,-10.469 z m 73.55,39.11 h 8.4805 v -68.7891 h -8.4805 z m 21.52,0 h 8.4414 v -9.60938 h -8.4414 z m 0,-18.949 h 8.4414 v -49.8398 h -8.4414 z m 21.33,-49.84 v 49.84 h 7.58 v -7.11 c 3.63,5.508 8.95,8.168 15.86,8.168 2.97,0 5.74,-0.551 8.24,-1.648 2.5,-1.012 4.42,-2.461 5.67,-4.211 1.25,-1.719 2.11,-3.828 2.57,-6.25 0.32,-1.531 0.51,-4.301 0.51,-8.168 v -30.621 h -8.47 v 30.269 c 0,3.442 -0.28,6.051 -0.94,7.77 -0.71,1.64 -1.84,3.051 -3.48,4.031 -1.72,1.051 -3.63,1.52 -5.94,1.52 -3.55,0 -6.64,-1.129 -9.22,-3.442 -2.61,-2.219 -3.94,-6.519 -3.94,-12.969 v -27.179 z m 87.38,16.129 8.75,-1.129 c -1.36,-5.082 -3.94,-9.031 -7.61,-11.84 -3.71,-2.77 -8.44,-4.223 -14.18,-4.223 -7.31,0 -13.09,2.231 -17.31,6.723 -4.33,4.527 -6.44,10.777 -6.44,18.828 0,8.359 2.11,14.883 6.44,19.492 4.34,4.61 9.89,6.918 16.8,6.918 6.64,0 11.99,-2.187 16.25,-6.801 4.22,-4.527 6.33,-10.859 6.33,-19.097 0,-0.512 0,-1.25 0,-2.231 h -37.19 c 0.31,-5.468 1.84,-9.609 4.65,-12.582 2.77,-2.886 6.21,-4.328 10.47,-4.328 3.04,0 5.62,0.86 7.85,2.5 2.23,1.641 3.94,4.219 5.19,7.77 z m -27.65,13.55 h 27.73 c -0.39,4.219 -1.44,7.309 -3.16,9.418 -2.7,3.243 -6.13,4.883 -10.47,4.883 -3.83,0 -7.11,-1.25 -9.69,-3.832 -2.69,-2.57 -4.14,-6.168 -4.41,-10.469 z m 81.05,-13.55 8.71,-1.129 c -1.32,-5.082 -3.9,-9.031 -7.57,-11.84 -3.75,-2.77 -8.44,-4.223 -14.22,-4.223 -7.31,0 -13.05,2.231 -17.27,6.723 -4.33,4.527 -6.44,10.777 -6.44,18.828 0,8.359 2.11,14.883 6.44,19.492 4.34,4.61 9.88,6.918 16.8,6.918 6.64,0 11.99,-2.187 16.25,-6.801 4.22,-4.527 6.33,-10.859 6.33,-19.097 0,-0.512 0,-1.25 0,-2.231 h -37.19 c 0.31,-5.468 1.84,-9.609 4.61,-12.582 2.81,-2.886 6.25,-4.328 10.47,-4.328 3.08,0 5.66,0.86 7.89,2.5 2.19,1.641 3.94,4.219 5.19,7.77 z m -27.65,13.55 h 27.73 c -0.39,4.219 -1.44,7.309 -3.16,9.418 -2.7,3.243 -6.14,4.883 -10.47,4.883 -3.83,0 -7.11,-1.25 -9.69,-3.832 -2.69,-2.57 -4.14,-6.168 -4.41,-10.469 z"
       style="fill:#4a4d4b;fill-opacity:1;fill-rule:evenodd;stroke:none"
       transform="matrix(0.13333333,0,0,-0.13333333,0,128)" />
    <path
       id="path2"
       d="m 471.762,20.3906 8.16,-1.1289 c 0.277,-2.5 1.25,-4.4609 2.887,-5.5898 2.113,-1.5235 4.89,-2.3008 8.562,-2.3008 3.899,0 6.91,0.7773 9.098,2.3008 2.109,1.5273 3.551,3.75 4.332,6.5273 0.398,1.711 0.551,5.3906 0.551,10.8516 -3.711,-4.332 -8.243,-6.5195 -13.793,-6.5195 -6.829,0 -12.11,2.5 -15.86,7.3789 -3.82,5 -5.66,10.8593 -5.66,17.7812 0,4.7969 0.859,9.0977 2.582,13.1602 1.758,4.0273 4.219,7.0703 7.5,9.2968 3.277,2.2305 7.109,3.2813 11.52,3.2813 5.859,0 10.66,-2.418 14.488,-7.2305 v 6.1797 h 7.781 V 31.3281 c 0,-7.7773 -0.75,-13.2383 -2.39,-16.5273 -1.559,-3.2422 -4.02,-5.74221 -7.5,-7.65236 -3.36,-1.83985 -7.571,-2.8086 -12.571,-2.8086 -5.937,0 -10.75,1.35938 -14.418,4.0586 C 473.398,10.9805 471.68,15 471.762,20.3906 Z m 6.91,29.8789 c 0,-6.4414 1.25,-11.25 3.867,-14.2187 2.66,-2.961 5.859,-4.5313 9.762,-4.5313 3.949,0 7.109,1.5703 9.808,4.5313 2.582,2.9687 3.942,7.5781 3.942,14.0273 0,6.0508 -1.36,10.6211 -4.063,13.711 -2.769,3.0898 -6.008,4.6093 -9.758,4.6093 -3.75,0 -7.031,-1.5195 -9.609,-4.4882 -2.582,-3.0899 -3.949,-7.5821 -3.949,-13.6407 z m 80.59,-25.7382 v 7.3789 c -3.871,-5.6602 -9.141,-8.4297 -15.742,-8.4297 -3.008,0 -5.711,0.539 -8.29,1.7187 -2.5,1.0508 -4.41,2.5 -5.66,4.211 -1.129,1.7187 -1.992,3.75 -2.582,6.25 -0.308,1.6406 -0.508,4.3007 -0.508,7.8906 v 30.8281 h 8.481 V 46.8008 c 0,-4.4219 0.199,-7.3906 0.469,-8.9492 0.59,-2.1914 1.718,-3.9024 3.48,-5.1524 1.602,-1.25 3.711,-1.9609 6.32,-1.9609 2.5,0 4.891,0.7109 7.11,1.9609 2.191,1.3203 3.75,3.0391 4.691,5.2696 0.86,2.3007 1.367,5.4726 1.367,9.8007 v 26.6094 h 8.442 V 24.5313 Z m 20.816,68.75 h 8.47266 V 83.67192 H 580.078 Z m 0,-18.9024 h 8.47266 V 24.5312 H 580.078 Z M 633.59,24.5313 v 6.3281 c -3.199,-4.8789 -7.809,-7.3789 -13.942,-7.3789 -3.949,0 -7.578,1.0508 -10.937,3.2383 -3.281,2.2304 -5.859,5.2695 -7.691,9.1406 -1.801,3.9414 -2.782,8.4414 -2.782,13.5195 0,5 0.864,9.5313 2.5,13.5508 1.641,4.0195 4.102,7.1094 7.461,9.2187 3.281,2.2305 7.031,3.2813 11.063,3.2813 2.968,0 5.66,-0.6992 8.078,-1.9492 2.308,-1.211 4.219,-2.8594 5.672,-4.8907 v 24.6915 h 8.437 v -68.75 z m -26.711,24.8476 c 0,-6.3281 1.32,-11.1406 4.019,-14.3008 2.692,-3.1679 5.864,-4.6875 9.614,-4.6875 3.629,0 6.828,1.5196 9.41,4.4883 2.617,2.9727 3.867,7.582 3.867,13.832 0,6.7188 -1.367,11.7188 -3.949,14.8789 -2.61,3.2891 -5.86,4.8086 -9.719,4.8086 -3.832,0 -6.922,-1.5195 -9.5,-4.6093 -2.5,-2.9688 -3.742,-7.8477 -3.742,-14.4102 z M 687.34,30.7383 c -3.16,-2.6485 -6.129,-4.4883 -9.02,-5.6172 -2.851,-1.1016 -6.05,-1.6406 -9.3,-1.6406 -5.469,0 -9.719,1.3203 -12.692,4.0195 -2.969,2.5781 -4.418,6.0508 -4.418,10.1992 0,2.3789 0.59,4.6797 1.641,6.711 1.14,2 2.578,3.5586 4.418,4.8086 1.832,1.25 3.832,2.1093 6.051,2.7695 1.718,0.3906 4.218,0.8633 7.582,1.25 6.839,0.7422 11.796,1.7226 15.078,2.8906 0,1.1406 0,1.9219 0,2.1914 0,3.4805 -0.782,5.8594 -2.379,7.2305 -2.11,1.9101 -5.391,2.8476 -9.61,2.8476 -4.07,0 -6.921,-0.6679 -8.832,-2.1093 -1.949,-1.3282 -3.281,-3.8282 -4.257,-7.3789 l -8.243,1.1289 c 0.782,3.5507 2.032,6.4414 3.75,8.5507 1.719,2.2305 4.219,3.8321 7.5,5.0821 3.243,1.1679 6.993,1.7578 11.332,1.7578 4.219,0 7.649,-0.5078 10.348,-1.5586 2.691,-0.9414 4.609,-2.1914 5.859,-3.7109 1.25,-1.5704 2.114,-3.4805 2.692,-5.7813 0.281,-1.4492 0.39,-4.0273 0.39,-7.7773 V 45.4688 c 0,-7.8907 0.2,-12.7696 0.551,-14.879 0.309,-2.1093 0.981,-4.1406 2.028,-6.0585 h -8.829 c -0.859,1.8398 -1.32,3.8281 -1.64,6.207 z m -0.66,18.75 c -3.09,-1.25 -7.7,-2.2969 -13.828,-3.1602 -3.473,-0.4687 -5.942,-1.0586 -7.383,-1.6367 -1.449,-0.6719 -2.5,-1.5312 -3.36,-2.7812 -0.781,-1.1719 -1.168,-2.5 -1.168,-3.9414 0,-2.3086 0.86,-4.1407 2.61,-5.668 1.719,-1.4414 4.219,-2.2227 7.469,-2.2227 3.281,0 6.171,0.6602 8.671,2.1133 2.579,1.4375 4.411,3.3594 5.539,5.8594 0.981,1.8281 1.45,4.7187 1.45,8.3594 z m 82.191,-8.8281 8.75,-1.1719 c -1.332,-5.0781 -3.949,-9.0195 -7.582,-11.7891 -3.75,-2.7773 -8.437,-4.2187 -14.219,-4.2187 -7.3,0 -13.05,2.1797 -17.269,6.7187 -4.332,4.4922 -6.442,10.7422 -6.442,18.8203 0,8.3203 2.11,14.8907 6.442,19.5 4.301,4.6016 9.89,6.9102 16.801,6.9102 6.597,0 11.988,-2.2305 16.207,-6.8399 4.222,-4.5312 6.332,-10.8593 6.332,-19.1015 0,-0.4688 0,-1.25 0,-2.2188 h -37.153 c 0.313,-5.4687 1.84,-9.5703 4.614,-12.5781 2.769,-2.8516 6.25,-4.3008 10.468,-4.3008 3.09,0 5.66,0.8594 7.891,2.461 2.187,1.6367 3.91,4.2578 5.16,7.8086 z m -27.66,13.5195 h 27.769 c -0.39,4.2617 -1.441,7.3008 -3.16,9.4101 -2.699,3.2891 -6.172,4.9297 -10.468,4.9297 -3.872,0 -7.114,-1.25 -9.731,-3.8711 -2.652,-2.5781 -4.101,-6.1289 -4.41,-10.4687 z m 73.75,39.1016 h 8.48047 V 83.67192 H 814.961 Z m 0,-18.9024 h 8.48047 V 24.5312 H 814.961 Z m 21.328,-49.8476 v 49.8476 h 7.582 v -7.1094 c 3.668,5.461 8.938,8.1602 15.859,8.1602 2.969,0 5.782,-0.5899 8.282,-1.6406 2.5,-1.0586 4.41,-2.5 5.617,-4.2188 1.25,-1.7617 2.152,-3.8711 2.621,-6.25 0.27,-1.5195 0.469,-4.3398 0.469,-8.1601 V 24.5313 h -8.438 v 30.2382 c 0,3.4688 -0.269,6.0508 -0.98,7.7696 -0.66,1.6406 -1.789,3.082 -3.43,4.0195 -1.723,1.1016 -3.672,1.5625 -5.98,1.5625 -3.551,0 -6.602,-1.1719 -9.219,-3.4727 -2.582,-2.1875 -3.902,-6.5273 -3.902,-12.9296 V 24.5313 Z m 67.031,0 -18.832,49.8476 h 9.032 l 10.66,-29.8906 c 1.172,-3.1602 2.23,-6.5195 3.281,-10 0.66,2.6211 1.719,5.7812 3.09,9.4219 l 11.129,30.4687 h 8.629 L 911.48,24.5313 Z m 34.379,68.75 h 8.47266 V 83.67192 H 937.699 Z m 0,-18.9024 h 8.47266 V 24.5312 H 937.699 Z m 53.86,-43.6406 c -3.161,-2.6485 -6.129,-4.4883 -9.02,-5.6172 -2.848,-1.1016 -6.019,-1.6406 -9.301,-1.6406 -5.468,0 -9.687,1.3203 -12.687,4.0195 -2.973,2.5781 -4.422,6.0508 -4.422,10.1992 0,2.3789 0.59,4.6797 1.641,6.711 1.179,2 2.582,3.5586 4.421,4.8086 1.829,1.25 3.86,2.1093 6.047,2.7695 1.723,0.3906 4.223,0.8633 7.582,1.25 6.84,0.7422 11.84,1.7226 15.078,2.8906 0,1.1406 0,1.9219 0,2.1914 0,3.4805 -0.738,5.8594 -2.378,7.2305 -2.11,1.9101 -5.399,2.8476 -9.61,2.8476 -4.031,0 -6.922,-0.6679 -8.832,-2.1093 -1.918,-1.3282 -3.277,-3.8282 -4.219,-7.3789 l -8.281,1.1289 c 0.781,3.5507 2.031,6.4414 3.75,8.5507 1.723,2.2305 4.223,3.8321 7.5,5.0821 3.281,1.1679 6.992,1.7578 11.332,1.7578 4.219,0 7.692,-0.5078 10.391,-1.5586 2.648,-0.9414 4.609,-2.1914 5.82,-3.7109 1.25,-1.5704 2.109,-3.4805 2.688,-5.7813 0.32,-1.4492 0.39,-4.0273 0.39,-7.7773 V 45.4688 c 0,-7.8907 0.199,-12.7696 0.591,-14.879 0.27,-2.1093 0.94,-4.1406 1.99,-6.0585 h -8.831 c -0.859,1.8398 -1.32,3.8281 -1.64,6.207 z m -0.661,18.75 c -3.046,-1.25 -7.66,-2.2969 -13.828,-3.1602 -3.441,-0.4687 -5.941,-1.0586 -7.379,-1.6367 -1.453,-0.6719 -2.5,-1.5312 -3.363,-2.7812 -0.777,-1.1719 -1.168,-2.5 -1.168,-3.9414 0,-2.3086 0.891,-4.1407 2.61,-5.668 1.718,-1.4414 4.218,-2.2227 7.5,-2.2227 3.25,0 6.14,0.6602 8.64,2.1133 2.57,1.4375 4.41,3.3594 5.539,5.8594 0.981,1.8281 1.449,4.7187 1.449,8.3594 z m 21.442,-24.957 v 49.8476 h 7.58 v -7.6172 c 1.92,3.4688 3.75,5.8594 5.35,6.9102 1.64,1.1679 3.48,1.7578 5.47,1.7578 2.81,0 5.71,-0.8984 8.67,-2.6992 l -2.96,-7.7696 c -2.11,1.1289 -4.15,1.7188 -6.18,1.7188 -1.79,0 -3.55,-0.5899 -5,-1.6406 -1.4,-1.1289 -2.5,-2.6993 -3.04,-4.6094 -0.98,-2.9688 -1.45,-6.3281 -1.45,-9.8789 V 24.5313 Z m 31.88,68.75 h 8.4414 v -68.75 h -8.4414 z m 18.32,-43.793 c 0,9.1015 2.62,15.9414 7.69,20.4336 4.3,3.6679 9.5,5.5078 15.67,5.5078 6.91,0 12.46,-2.2305 16.8,-6.7188 4.29,-4.4101 6.52,-10.6601 6.52,-18.5507 0,-6.4493 -0.98,-11.4493 -2.89,-15.0821 -1.92,-3.6289 -4.69,-6.5273 -8.32,-8.5586 -3.75,-2.1093 -7.7,-3.039 -12.11,-3.039 -6.92,0 -12.62,2.1797 -16.92,6.7187 -4.33,4.4102 -6.44,10.8516 -6.44,19.2891 z m 8.63,-0.1094 c 0,-6.3281 1.45,-11.1406 4.26,-14.1797 2.77,-3.2109 6.21,-4.8086 10.47,-4.8086 4.22,0 7.65,1.5977 10.55,4.8086 2.77,3.1602 4.14,7.961 4.14,14.4922 0,6.1289 -1.45,10.8594 -4.22,14.0195 -2.82,3.168 -6.25,4.6875 -10.47,4.6875 -4.26,0 -7.7,-1.5195 -10.47,-4.6875 -2.81,-3.1601 -4.26,-7.8906 -4.26,-14.332 z m 74.65,-24.8476 v 49.8476 h 7.58 v -7.1094 c 3.63,5.461 8.94,8.1602 15.86,8.1602 2.97,0 5.74,-0.5899 8.24,-1.6406 2.5,-1.0586 4.41,-2.5 5.66,-4.2188 1.25,-1.7617 2.11,-3.8711 2.58,-6.25 0.31,-1.5195 0.51,-4.3398 0.51,-8.1601 V 24.5313 h -8.48 v 30.2382 c 0,3.4688 -0.27,6.0508 -0.93,7.7696 -0.71,1.6406 -1.84,3.082 -3.48,4.0195 -1.72,1.1016 -3.63,1.5625 -5.94,1.5625 -3.55,0 -6.64,-1.1719 -9.22,-3.4727 -2.61,-2.1875 -3.94,-6.5273 -3.94,-12.9296 V 24.5313 Z m 87.38,16.1289 8.71,-1.1719 c -1.32,-5.0781 -3.9,-9.0195 -7.57,-11.7891 -3.75,-2.7773 -8.44,-4.2187 -14.18,-4.2187 -7.31,0 -13.09,2.1797 -17.31,6.7187 -4.33,4.4922 -6.44,10.7422 -6.44,18.8203 0,8.3203 2.11,14.8907 6.44,19.5 4.34,4.6016 9.88,6.9102 16.8,6.9102 6.64,0 11.99,-2.2305 16.25,-6.8399 4.22,-4.5312 6.33,-10.8593 6.33,-19.1015 0,-0.4688 0,-1.25 0,-2.2188 h -37.15 c 0.27,-5.4687 1.8,-9.5703 4.61,-12.5781 2.77,-2.8516 6.21,-4.3008 10.47,-4.3008 3.04,0 5.62,0.8594 7.85,2.461 2.22,1.6367 3.94,4.2578 5.19,7.8086 z m -27.65,13.5195 h 27.73 c -0.39,4.2617 -1.44,7.3008 -3.16,9.4101 -2.7,3.2891 -6.14,4.9297 -10.47,4.9297 -3.83,0 -7.11,-1.25 -9.69,-3.8711 -2.69,-2.5781 -4.14,-6.1289 -4.41,-10.4687 z m 46.83,39.1016 h 8.4805 v -68.75 h -8.4805 z m 21.33,0 h 8.4805 v -68.75 h -8.4805 z m 54.06,-62.543 c -3.16,-2.6485 -6.13,-4.4883 -9.02,-5.6172 -2.85,-1.1016 -6.05,-1.6406 -9.3,-1.6406 -5.47,0 -9.68,1.3203 -12.69,4.0195 -2.97,2.5781 -4.42,6.0508 -4.42,10.1992 0,2.3789 0.59,4.6797 1.64,6.711 1.18,2 2.58,3.5586 4.42,4.8086 1.83,1.25 3.83,2.1093 6.05,2.7695 1.72,0.3906 4.22,0.8633 7.58,1.25 6.84,0.7422 11.84,1.7226 15.08,2.8906 0,1.1406 0,1.9219 0,2.1914 0,3.4805 -0.74,5.8594 -2.38,7.2305 -2.11,1.9101 -5.39,2.8476 -9.61,2.8476 -4.03,0 -6.92,-0.6679 -8.83,-2.1093 -1.91,-1.3282 -3.28,-3.8282 -4.26,-7.3789 l -8.24,1.1289 c 0.78,3.5507 2.03,6.4414 3.75,8.5507 1.72,2.2305 4.22,3.8321 7.5,5.0821 3.24,1.1679 6.99,1.7578 11.33,1.7578 4.22,0 7.65,-0.5078 10.35,-1.5586 2.69,-0.9414 4.61,-2.1914 5.86,-3.7109 1.25,-1.5704 2.11,-3.4805 2.69,-5.7813 0.32,-1.4492 0.39,-4.0273 0.39,-7.7773 V 45.4688 c 0,-7.8907 0.2,-12.7696 0.59,-14.879 0.27,-2.1093 0.94,-4.1406 1.99,-6.0585 h -8.83 c -0.86,1.8398 -1.32,3.8281 -1.64,6.207 z m -0.66,18.75 c -3.09,-1.25 -7.7,-2.2969 -13.83,-3.1602 -3.44,-0.4687 -5.94,-1.0586 -7.38,-1.6367 -1.45,-0.6719 -2.5,-1.5312 -3.36,-2.7812 -0.78,-1.1719 -1.17,-2.5 -1.17,-3.9414 0,-2.3086 0.86,-4.1407 2.61,-5.668 1.72,-1.4414 4.22,-2.2227 7.47,-2.2227 3.28,0 6.17,0.6602 8.67,2.1133 2.58,1.4375 4.41,3.3594 5.54,5.8594 0.98,1.8281 1.45,4.7187 1.45,8.3594 z m 48.2,-24.957 v 49.8476 h 7.58 v -7.1094 c 3.67,5.461 8.95,8.1602 15.86,8.1602 2.97,0 5.78,-0.5899 8.24,-1.6406 2.5,-1.0586 4.46,-2.5 5.71,-4.2188 1.25,-1.7617 2.1,-3.8711 2.57,-6.25 0.28,-1.5195 0.47,-4.3398 0.47,-8.1601 V 24.5313 h -8.44 v 30.2382 c 0,3.4688 -0.31,6.0508 -0.97,7.7696 -0.67,1.6406 -1.8,3.082 -3.44,4.0195 -1.76,1.1016 -3.67,1.5625 -5.98,1.5625 -3.51,0 -6.6,-1.1719 -9.21,-3.4727 -2.58,-2.1875 -3.91,-6.5273 -3.91,-12.9296 V 24.5313 Z m 50.24,24.957 c 0,9.1015 2.57,15.9414 7.69,20.4336 4.3,3.6679 9.49,5.5078 15.63,5.5078 6.91,0 12.5,-2.2305 16.83,-6.7188 4.3,-4.4101 6.53,-10.6601 6.53,-18.5507 0,-6.4493 -0.98,-11.4493 -2.89,-15.0821 -1.92,-3.6289 -4.69,-6.5273 -8.36,-8.5586 -3.75,-2.1093 -7.7,-3.039 -12.11,-3.039 -6.92,0 -12.58,2.1797 -16.88,6.7187 -4.33,4.4102 -6.44,10.8516 -6.44,19.2891 z m 8.63,-0.1094 c 0,-6.3281 1.44,-11.1406 4.22,-14.1797 2.81,-3.2109 6.25,-4.8086 10.47,-4.8086 4.25,0 7.69,1.5977 10.58,4.8086 2.78,3.1602 4.1,7.961 4.1,14.4922 0,6.1289 -1.4,10.8594 -4.21,14.0195 -2.78,3.168 -6.22,4.6875 -10.47,4.6875 -4.22,0 -7.66,-1.5195 -10.47,-4.6875 -2.78,-3.1601 -4.22,-7.8906 -4.22,-14.332 z m 44.57,-9.9687 8.36,1.3281 c 0.47,-3.3594 1.84,-5.8594 3.94,-7.6485 2.11,-1.8398 5.16,-2.6992 9.03,-2.6992 3.83,0 6.72,0.7383 8.63,2.3789 1.84,1.5313 2.77,3.3594 2.77,5.5899 0,1.8008 -0.86,3.3594 -2.5,4.4101 -1.25,0.7813 -4.1,1.7188 -8.63,2.8907 -6.25,1.5312 -10.47,2.8593 -12.85,4.0312 -2.42,1.1289 -4.26,2.7695 -5.51,4.7969 -1.13,1.9219 -1.79,4.2226 -1.79,6.6015 0,2.2305 0.46,4.2188 1.52,6.1797 1.05,1.9102 2.38,3.4297 4.14,4.6797 1.33,0.9805 3.09,1.8399 5.35,2.5 2.31,0.6719 4.73,0.9805 7.31,0.9805 3.86,0 7.3,-0.5899 10.27,-1.7578 3.01,-1.0508 5.12,-2.5821 6.52,-4.4922 1.37,-1.9102 2.42,-4.5313 2.89,-7.7695 l -8.24,-1.1797 c -0.39,2.6211 -1.44,4.6093 -3.28,6.0586 -1.72,1.5195 -4.3,2.2304 -7.58,2.2304 -3.83,0 -6.64,-0.7109 -8.24,-1.9609 -1.64,-1.25 -2.5,-2.7695 -2.5,-4.4883 0,-1.0508 0.35,-2.0312 1.05,-2.9687 0.67,-0.8633 1.72,-1.6407 3.17,-2.2227 0.86,-0.2773 3.36,-1.0586 7.5,-2.1094 5.94,-1.6484 10.08,-2.9687 12.46,-3.9492 2.42,-1.0508 4.26,-2.4609 5.58,-4.4101 1.33,-1.9219 2,-4.3008 2,-7.1914 0,-2.7696 -0.74,-5.4688 -2.46,-7.9688 -1.64,-2.5 -3.95,-4.4102 -7.11,-5.7812 -3.09,-1.3282 -6.57,-1.9883 -10.47,-1.9883 -6.45,0 -11.45,1.3203 -14.81,4.0195 -3.43,2.6992 -5.54,6.6016 -6.52,11.9102 z m 69.73,-7.3008 1.13,-7.5 c -2.38,-0.4688 -4.49,-0.7383 -6.33,-0.7383 -3.08,0 -5.47,0.4687 -7.11,1.3984 -1.72,0.9805 -2.89,2.3086 -3.55,3.8711 -0.67,1.5977 -1.06,4.8789 -1.06,9.961 v 28.707 h -6.25 v 6.5703 h 6.25 v 12.2617 l 8.44,5.1211 V 74.3789 h 8.48 V 67.8086 H 1540 V 38.6289 c 0,-2.3789 0.2,-3.9375 0.51,-4.6094 0.27,-0.7812 0.74,-1.25 1.44,-1.7187 0.67,-0.3906 1.6,-0.582 2.85,-0.582 0.86,0 2.11,0.121 3.68,0.3906 z m 8.24,-7.5781 v 49.8476 h 7.58 v -7.6172 c 1.91,3.4688 3.75,5.8594 5.39,6.9102 1.64,1.1679 3.43,1.7578 5.47,1.7578 2.81,0 5.66,-0.8984 8.63,-2.6992 l -2.97,-7.7696 c -2.11,1.1289 -4.1,1.7188 -6.13,1.7188 -1.84,0 -3.56,-0.5899 -5,-1.6406 -1.45,-1.1289 -2.5,-2.6993 -3.09,-4.6094 -0.94,-2.9688 -1.44,-6.3281 -1.44,-9.8789 V 24.5313 Z m 64.65,6.207 c -3.21,-2.6485 -6.17,-4.4883 -9.03,-5.6172 -2.89,-1.1016 -6.05,-1.6406 -9.33,-1.6406 -5.47,0 -9.69,1.3203 -12.7,4.0195 -2.97,2.5781 -4.37,6.0508 -4.37,10.1992 0,2.3789 0.54,4.6797 1.6,6.711 1.17,2 2.62,3.5586 4.41,4.8086 1.84,1.25 3.87,2.1093 6.06,2.7695 1.76,0.3906 4.22,0.8633 7.58,1.25 6.83,0.7422 11.83,1.7226 15.07,2.8906 0,1.1406 0,1.9219 0,2.1914 0,3.4805 -0.74,5.8594 -2.38,7.2305 -2.11,1.9101 -5.39,2.8476 -9.61,2.8476 -4.02,0 -6.91,-0.6679 -8.83,-2.1093 -1.91,-1.3282 -3.28,-3.8282 -4.22,-7.3789 l -8.28,1.1289 c 0.78,3.5507 2.04,6.4414 3.75,8.5507 1.72,2.2305 4.22,3.8321 7.5,5.0821 3.29,1.1679 7,1.7578 11.33,1.7578 4.22,0 7.7,-0.5078 10.39,-1.5586 2.66,-0.9414 4.61,-2.1914 5.82,-3.7109 1.25,-1.5704 2.15,-3.4805 2.7,-5.7813 0.31,-1.4492 0.39,-4.0273 0.39,-7.7773 V 45.4688 c 0,-7.8907 0.19,-12.7696 0.58,-14.879 0.28,-2.1093 0.94,-4.1406 2.04,-6.0585 h -8.87 c -0.86,1.8398 -1.33,3.8281 -1.6,6.207 z m -0.71,18.75 c -3.04,-1.25 -7.65,-2.2969 -13.82,-3.1602 -3.44,-0.4687 -5.94,-1.0586 -7.39,-1.6367 -1.44,-0.6719 -2.5,-1.5312 -3.36,-2.7812 -0.78,-1.1719 -1.17,-2.5 -1.17,-3.9414 0,-2.3086 0.9,-4.1407 2.62,-5.668 1.72,-1.4414 4.22,-2.2227 7.5,-2.2227 3.24,0 6.13,0.6602 8.63,2.1133 2.58,1.4375 4.42,3.3594 5.59,5.8594 0.94,1.8281 1.4,4.7187 1.4,8.3594 z m 80.79,-18.75 c -3.17,-2.6485 -6.14,-4.4883 -9.03,-5.6172 -2.89,-1.1016 -6.05,-1.6406 -9.33,-1.6406 -5.47,0 -9.69,1.3203 -12.66,4.0195 -2.97,2.5781 -4.41,6.0508 -4.41,10.1992 0,2.3789 0.54,4.6797 1.64,6.711 1.13,2 2.57,3.5586 4.41,4.8086 1.8,1.25 3.83,2.1093 6.05,2.7695 1.72,0.3906 4.22,0.8633 7.58,1.25 6.8,0.7422 11.8,1.7226 15.08,2.8906 0,1.1406 0,1.9219 0,2.1914 0,3.4805 -0.78,5.8594 -2.42,7.2305 -2.11,1.9101 -5.35,2.8476 -9.57,2.8476 -4.06,0 -6.95,-0.6679 -8.87,-2.1093 -1.91,-1.3282 -3.24,-3.8282 -4.22,-7.3789 l -8.24,1.1289 c 0.74,3.5507 1.99,6.4414 3.71,8.5507 1.76,2.2305 4.26,3.8321 7.5,5.0821 3.28,1.1679 7.03,1.7578 11.37,1.7578 4.22,0 7.66,-0.5078 10.35,-1.5586 2.7,-0.9414 4.61,-2.1914 5.86,-3.7109 1.25,-1.5704 2.11,-3.4805 2.7,-5.7813 0.27,-1.4492 0.39,-4.0273 0.39,-7.7773 V 45.4688 c 0,-7.8907 0.15,-12.7696 0.54,-14.879 0.32,-2.1093 0.98,-4.1406 2.03,-6.0585 h -8.82 c -0.86,1.8398 -1.37,3.8281 -1.64,6.207 z m -0.67,18.75 c -3.08,-1.25 -7.69,-2.2969 -13.83,-3.1602 -3.47,-0.4687 -5.97,-1.0586 -7.42,-1.6367 -1.41,-0.6719 -2.5,-1.5312 -3.36,-2.7812 -0.74,-1.1719 -1.13,-2.5 -1.13,-3.9414 0,-2.3086 0.86,-4.1407 2.58,-5.668 1.76,-1.4414 4.22,-2.2227 7.5,-2.2227 3.28,0 6.13,0.6602 8.63,2.1133 2.62,1.4375 4.41,3.3594 5.59,5.8594 0.93,1.8281 1.44,4.7187 1.44,8.3594 z m 21.41,-24.957 v 49.8476 h 7.58 v -7.6172 c 1.91,3.4688 3.75,5.8594 5.39,6.9102 1.64,1.1679 3.43,1.7578 5.46,1.7578 2.78,0 5.67,-0.8984 8.64,-2.6992 l -2.97,-7.7696 c -2.11,1.1289 -4.14,1.7188 -6.13,1.7188 -1.84,0 -3.56,-0.5899 -5,-1.6406 -1.45,-1.1289 -2.5,-2.6993 -3.09,-4.6094 -0.94,-2.9688 -1.45,-6.3281 -1.45,-9.8789 V 24.5313 Z m 66.05,16.1289 8.75,-1.1719 c -1.33,-5.0781 -3.94,-9.0195 -7.58,-11.7891 -3.75,-2.7773 -8.43,-4.2187 -14.21,-4.2187 -7.31,0 -13.05,2.1797 -17.31,6.7187 -4.3,4.4922 -6.41,10.7422 -6.41,18.8203 0,8.3203 2.11,14.8907 6.41,19.5 4.34,4.6016 9.92,6.9102 16.84,6.9102 6.6,0 11.99,-2.2305 16.21,-6.8399 4.22,-4.5312 6.33,-10.8593 6.33,-19.1015 0,-0.4688 0,-1.25 0,-2.2188 h -37.15 c 0.27,-5.4687 1.83,-9.5703 4.61,-12.5781 2.77,-2.8516 6.25,-4.3008 10.47,-4.3008 3.08,0 5.66,0.8594 7.89,2.461 2.18,1.6367 3.9,4.2578 5.15,7.8086 z m -27.65,13.5195 h 27.77 c -0.39,4.2617 -1.45,7.3008 -3.16,9.4101 -2.7,3.2891 -6.18,4.9297 -10.47,4.9297 -3.87,0 -7.11,-1.25 -9.73,-3.8711 -2.66,-2.5781 -4.1,-6.1289 -4.41,-10.4687 z m 79.61,-23.4414 c -3.17,-2.6485 -6.14,-4.4883 -9.03,-5.6172 -2.89,-1.1016 -6.05,-1.6406 -9.29,-1.6406 -5.47,0 -9.73,1.3203 -12.7,4.0195 -2.97,2.5781 -4.41,6.0508 -4.41,10.1992 0,2.3789 0.58,4.6797 1.64,6.711 1.17,2 2.57,3.5586 4.41,4.8086 1.84,1.25 3.83,2.1093 6.06,2.7695 1.71,0.3906 4.21,0.8633 7.57,1.25 6.84,0.7422 11.84,1.7226 15.08,2.8906 0,1.1406 0,1.9219 0,2.1914 0,3.4805 -0.74,5.8594 -2.38,7.2305 -2.11,1.9101 -5.39,2.8476 -9.61,2.8476 -4.02,0 -6.92,-0.6679 -8.83,-2.1093 -1.95,-1.3282 -3.28,-3.8282 -4.26,-7.3789 l -8.24,1.1289 c 0.78,3.5507 2.03,6.4414 3.75,8.5507 1.72,2.2305 4.22,3.8321 7.5,5.0821 3.24,1.1679 6.99,1.7578 11.33,1.7578 4.22,0 7.66,-0.5078 10.35,-1.5586 2.7,-0.9414 4.61,-2.1914 5.86,-3.7109 1.25,-1.5704 2.11,-3.4805 2.7,-5.7813 0.27,-1.4492 0.39,-4.0273 0.39,-7.7773 V 45.4688 c 0,-7.8907 0.19,-12.7696 0.58,-14.879 0.28,-2.1093 0.94,-4.1406 1.99,-6.0585 h -8.82 c -0.86,1.8398 -1.33,3.8281 -1.64,6.207 z m -0.67,18.75 c -3.08,-1.25 -7.69,-2.2969 -13.83,-3.1602 -3.43,-0.4687 -5.93,-1.0586 -7.38,-1.6367 -1.44,-0.6719 -2.5,-1.5312 -3.36,-2.7812 -0.78,-1.1719 -1.17,-2.5 -1.17,-3.9414 0,-2.3086 0.86,-4.1407 2.62,-5.668 1.71,-1.4414 4.21,-2.2227 7.46,-2.2227 3.28,0 6.17,0.6602 8.67,2.1133 2.58,1.4375 4.41,3.3594 5.55,5.8594 0.97,1.8281 1.44,4.7187 1.44,8.3594 z m 80.39,-24.957 v 6.3281 c -3.16,-4.8789 -7.77,-7.3789 -13.94,-7.3789 -3.95,0 -7.58,1.0508 -10.94,3.2383 -3.24,2.2304 -5.86,5.2695 -7.7,9.1406 -1.79,3.9414 -2.77,8.4414 -2.77,13.5195 0,5 0.86,9.5313 2.5,13.5508 1.64,4.0195 4.14,7.1094 7.5,9.2187 3.24,2.2305 6.99,3.2813 11.02,3.2813 3,0 5.7,-0.6992 8.08,-1.9492 2.31,-1.211 4.22,-2.8594 5.67,-4.8907 v 24.6915 h 8.43 v -68.75 z m -26.72,24.8476 c 0,-6.3281 1.37,-11.1406 4.07,-14.3008 2.65,-3.1679 5.85,-4.6875 9.57,-4.6875 3.67,0 6.83,1.5196 9.41,4.4883 2.62,2.9727 3.87,7.582 3.87,13.832 0,6.7188 -1.37,11.7188 -3.95,14.8789 -2.58,3.2891 -5.86,4.8086 -9.69,4.8086 -3.86,0 -6.95,-1.5195 -9.53,-4.6093 -2.5,-2.9688 -3.75,-7.8477 -3.75,-14.4102 z m 44.77,0.1094 c 0,9.1015 2.58,15.9414 7.69,20.4336 4.3,3.6679 9.5,5.5078 15.63,5.5078 6.91,0 12.5,-2.2305 16.83,-6.7188 4.3,-4.4101 6.53,-10.6601 6.53,-18.5507 0,-6.4493 -0.98,-11.4493 -2.89,-15.0821 -1.92,-3.6289 -4.73,-6.5273 -8.36,-8.5586 -3.75,-2.1093 -7.7,-3.039 -12.11,-3.039 -6.91,0 -12.58,2.1797 -16.88,6.7187 -4.33,4.4102 -6.44,10.8516 -6.44,19.2891 z m 8.63,-0.1094 c 0,-6.3281 1.45,-11.1406 4.26,-14.1797 2.77,-3.2109 6.21,-4.8086 10.43,-4.8086 4.26,0 7.69,1.5977 10.59,4.8086 2.77,3.1602 4.1,7.961 4.1,14.4922 0,6.1289 -1.45,10.8594 -4.22,14.0195 -2.78,3.168 -6.21,4.6875 -10.47,4.6875 -4.22,0 -7.66,-1.5195 -10.43,-4.6875 -2.81,-3.1601 -4.26,-7.8906 -4.26,-14.332 z m 56.88,-24.8476 -15,49.8476 h 8.82 l 7.9,-28.7187 2.89,-10.7813 c 0.07,0.5899 0.93,3.9492 2.57,10.2813 l 7.89,29.2187 h 8.64 l 7.5,-28.9101 2.46,-9.5274 2.81,9.6094 8.63,28.8281 h 8.25 l -15.63,-49.8476 h -8.75 l -7.97,29.8476 -1.91,8.4727 -10.08,-38.3203 z m 60.39,0 v 49.8476 h 7.58 v -7.1094 c 3.67,5.461 8.94,8.1602 15.85,8.1602 2.97,0 5.75,-0.5899 8.25,-1.6406 2.5,-1.0586 4.41,-2.5 5.66,-4.2188 1.25,-1.7617 2.11,-3.8711 2.62,-6.25 0.27,-1.5195 0.47,-4.3398 0.47,-8.1601 V 24.5313 h -8.44 v 30.2382 c 0,3.4688 -0.31,6.0508 -0.98,7.7696 -0.66,1.6406 -1.83,3.082 -3.47,4.0195 -1.72,1.1016 -3.64,1.5625 -5.94,1.5625 -3.56,0 -6.64,-1.1719 -9.22,-3.4727 -2.58,-2.1875 -3.95,-6.5273 -3.95,-12.9296 V 24.5313 Z m 53.2,68.75 h 8.4414 v -68.75 h -8.4414 z m 18.32,-43.793 c 0,9.1015 2.62,15.9414 7.7,20.4336 4.33,3.6679 9.53,5.5078 15.66,5.5078 6.91,0 12.46,-2.2305 16.8,-6.7188 4.33,-4.4101 6.52,-10.6601 6.52,-18.5507 0,-6.4493 -0.94,-11.4493 -2.89,-15.0821 -1.91,-3.6289 -4.69,-6.5273 -8.32,-8.5586 -3.75,-2.1093 -7.7,-3.039 -12.11,-3.039 -6.91,0 -12.58,2.1797 -16.91,6.7187 -4.3,4.4102 -6.45,10.8516 -6.45,19.2891 z m 8.67,-0.1094 c 0,-6.3281 1.45,-11.1406 4.22,-14.1797 2.77,-3.2109 6.25,-4.8086 10.47,-4.8086 4.22,0 7.66,1.5977 10.55,4.8086 2.81,3.1602 4.14,7.961 4.14,14.4922 0,6.1289 -1.45,10.8594 -4.22,14.0195 -2.81,3.168 -6.25,4.6875 -10.47,4.6875 -4.22,0 -7.7,-1.5195 -10.47,-4.6875 -2.77,-3.1601 -4.22,-7.8906 -4.22,-14.332 z m 80.47,-18.6406 c -3.16,-2.6485 -6.13,-4.4883 -9.02,-5.6172 -2.89,-1.1016 -6.06,-1.6406 -9.34,-1.6406 -5.47,0 -9.69,1.3203 -12.65,4.0195 -2.97,2.5781 -4.42,6.0508 -4.42,10.1992 0,2.3789 0.55,4.6797 1.6,6.711 1.18,2 2.62,3.5586 4.46,4.8086 1.79,1.25 3.82,2.1093 6.01,2.7695 1.76,0.3906 4.22,0.8633 7.62,1.25 6.8,0.7422 11.8,1.7226 15.08,2.8906 0,1.1406 0,1.9219 0,2.1914 0,3.4805 -0.78,5.8594 -2.42,7.2305 -2.11,1.9101 -5.4,2.8476 -9.61,2.8476 -4.03,0 -6.92,-0.6679 -8.83,-2.1093 -1.92,-1.3282 -3.24,-3.8282 -4.22,-7.3789 l -8.24,1.1289 c 0.74,3.5507 1.99,6.4414 3.71,8.5507 1.76,2.2305 4.26,3.8321 7.5,5.0821 3.28,1.1679 7.03,1.7578 11.33,1.7578 4.21,0 7.69,-0.5078 10.39,-1.5586 2.65,-0.9414 4.61,-2.1914 5.86,-3.7109 1.25,-1.5704 2.11,-3.4805 2.65,-5.7813 0.31,-1.4492 0.39,-4.0273 0.39,-7.7773 V 45.4688 c 0,-7.8907 0.2,-12.7696 0.59,-14.879 0.27,-2.1093 0.98,-4.1406 2.03,-6.0585 h -8.87 c -0.86,1.8398 -1.33,3.8281 -1.6,6.207 z m -0.66,18.75 c -3.09,-1.25 -7.7,-2.2969 -13.83,-3.1602 -3.48,-0.4687 -5.98,-1.0586 -7.42,-1.6367 -1.45,-0.6719 -2.5,-1.5312 -3.36,-2.7812 -0.74,-1.1719 -1.14,-2.5 -1.14,-3.9414 0,-2.3086 0.86,-4.1407 2.58,-5.668 1.72,-1.4414 4.22,-2.2227 7.5,-2.2227 3.25,0 6.14,0.6602 8.64,2.1133 2.57,1.4375 4.41,3.3594 5.58,5.8594 0.94,1.8281 1.45,4.7187 1.45,8.3594 z m 53.67,-24.957 v 6.3281 c -3.16,-4.8789 -7.77,-7.3789 -13.95,-7.3789 -3.9,0 -7.57,1.0508 -10.93,3.2383 -3.28,2.2304 -5.86,5.2695 -7.7,9.1406 -1.8,3.9414 -2.77,8.4414 -2.77,13.5195 0,5 0.86,9.5313 2.5,13.5508 1.64,4.0195 4.14,7.1094 7.5,9.2187 3.24,2.2305 6.99,3.2813 11.01,3.2813 3.01,0 5.71,-0.6992 8.09,-1.9492 2.3,-1.211 4.22,-2.8594 5.66,-4.8907 v 24.6915 h 8.44 v -68.75 z m -26.72,24.8476 c 0,-6.3281 1.37,-11.1406 4.06,-14.3008 2.7,-3.1679 5.82,-4.6875 9.57,-4.6875 3.67,0 6.84,1.5196 9.42,4.4883 2.61,2.9727 3.86,7.582 3.86,13.832 0,6.7188 -1.36,11.7188 -3.94,14.8789 -2.62,3.2891 -5.86,4.8086 -9.69,4.8086 -3.87,0 -6.91,-1.5195 -9.53,-4.6093 -2.5,-2.9688 -3.75,-7.8477 -3.75,-14.4102 z"
       style="fill:#4a4d4b;fill-opacity:1;fill-rule:evenodd;stroke:none"
       transform="matrix(0.13333333,0,0,-0.13333333,0,128)" />
    <path
       id="path3"
       d="m 0,324.648 16.9102,1.68 c 1.1015,-5.668 3.1289,-9.848 6.1406,-12.5 3.0781,-2.617 7.3008,-3.949 12.5703,-3.949 5.5508,0 9.7305,1.211 12.6172,3.601 2.7422,2.301 4.1836,5.04 4.1836,8.282 0,2.066 -0.5821,3.75 -1.8008,5.148 -1.1719,1.449 -3.2422,2.66 -6.2422,3.75 -1.918,0.711 -6.5703,1.918 -13.7891,3.719 -9.2187,2.262 -15.7109,5.152 -19.4179,8.512 -5.27346,4.808 -7.93362,10.55 -7.93362,17.379 0,4.339 1.21094,8.558 3.71094,12.269 2.5,3.832 6.01958,6.723 10.71098,8.75 4.6406,2.031 10.3086,3.012 16.9101,3.012 10.6602,0 18.8281,-2.422 24.2188,-7.192 5.3906,-4.687 8.2812,-11.058 8.5117,-19.097 l -17.3789,-0.633 c -0.7422,4.461 -2.3008,7.699 -4.6914,9.609 -2.5313,1.922 -6.1289,2.891 -10.8907,2.891 -5.0781,0 -9.0312,-1.051 -11.8007,-3.117 -1.8008,-1.293 -2.7383,-3.133 -2.7383,-5.391 0,-2.031 0.8203,-3.711 2.6211,-5.16 2.1875,-1.91 7.457,-3.871 15.8594,-5.742 8.3984,-2.071 14.6484,-4.098 18.707,-6.25 3.9922,-2.188 7.1914,-5.039 9.4922,-8.789 2.2695,-3.59 3.3593,-8.129 3.3593,-13.668 0,-4.922 -1.3203,-9.461 -4.1015,-13.793 -2.7266,-4.34 -6.5977,-7.457 -11.6367,-9.61 -4.9219,-2.031 -11.1328,-3.129 -18.711,-3.129 -10.7812,0 -19.1797,2.54 -24.9609,7.579 C 4.53125,307.73 1.17188,315.039 0,324.648 Z m 138.711,15.973 -16.172,-2.891 c -0.508,3.25 -1.84,5.629 -3.75,7.309 -1.91,1.563 -4.449,2.422 -7.578,2.422 -4.063,0 -7.301,-1.441 -9.691,-4.223 -2.5395,-2.886 -3.7505,-7.648 -3.7505,-14.289 0,-7.429 1.211,-12.578 3.7505,-15.711 2.5,-3.008 5.75,-4.566 9.96,-4.566 3.129,0 5.629,0.976 7.661,2.656 2.031,1.793 3.398,4.922 4.218,9.262 l 16.172,-2.781 c -1.679,-7.457 -4.883,-13.079 -9.57,-16.789 -4.801,-3.829 -11.172,-5.79 -19.223,-5.79 -9.097,0 -16.2888,2.891 -21.7185,8.68 -5.3906,5.738 -8.1601,13.668 -8.1601,23.86 0,10.32 2.7695,18.359 8.1601,23.992 5.4297,5.777 12.7425,8.629 21.9605,8.629 7.571,0 13.711,-1.68 18.122,-4.879 4.449,-3.242 7.699,-8.211 9.609,-14.891 z m 24.73,-0.742 -14.89,2.66 c 1.679,6.09 4.57,10.551 8.64,13.551 4.219,2.89 10.188,4.301 18.36,4.301 7.301,0 12.847,-0.821 16.437,-2.621 3.481,-1.68 6.133,-3.821 7.543,-6.598 1.449,-2.652 2.188,-7.582 2.188,-14.762 l -0.239,-19.18 c 0,-5.429 0.239,-9.5 0.821,-12.031 0.469,-2.621 1.449,-5.398 2.898,-8.398 h -16.328 c -0.351,1.09 -0.98,2.648 -1.57,4.801 -0.231,0.976 -0.461,1.679 -0.582,1.918 -2.77,-2.739 -5.778,-4.809 -9.02,-6.25 -3.25,-1.29 -6.609,-2.04 -10.199,-2.04 -6.371,0 -11.41,1.801 -15.121,5.282 -3.707,3.398 -5.5,7.808 -5.5,13.078 0,3.64 0.82,6.719 2.5,9.5 1.672,2.769 4.101,4.801 7.101,6.25 2.969,1.558 7.309,2.769 13.051,3.82 7.699,1.449 12.969,2.891 15.981,4.07 v 1.719 c 0,3.242 -0.711,5.5 -2.274,6.832 -1.679,1.328 -4.566,2.028 -8.898,2.028 -2.969,0 -5.281,-0.579 -6.961,-1.789 -1.559,-1.098 -2.891,-3.129 -3.938,-6.141 z m 22.071,-13.32 c -2.032,-0.7 -5.391,-1.559 -9.961,-2.5 -4.571,-0.969 -7.539,-1.95 -8.992,-2.887 -2.18,-1.563 -3.239,-3.473 -3.239,-5.781 0,-2.27 0.821,-4.301 2.621,-5.981 1.68,-1.68 3.86,-2.531 6.481,-2.531 3.008,0 5.898,0.973 8.519,2.891 2.071,1.558 3.36,3.351 3.981,5.5 0.348,1.449 0.59,4.109 0.59,8.05 z m 48.117,-29.758 h -16.438 v 62.301 h 15.231 v -8.903 c 2.656,4.211 5.039,6.992 7.066,8.281 2.192,1.321 4.461,1.911 7.231,1.911 3.711,0 7.301,-1.051 10.781,-3.09 l -5.039,-14.289 c -2.852,1.789 -5.391,2.648 -7.77,2.648 -2.312,0 -4.339,-0.621 -5.902,-1.949 -1.559,-1.172 -2.891,-3.481 -3.711,-6.832 -0.976,-3.359 -1.449,-10.32 -1.449,-20.859 z m 30.98,85.929 h 16.4102 V 367.4605 H 264.609 Z m 0,-23.628 h 16.4102 V 296.8012 H 264.609 Z m 87.582,-18.481 -16.211,-2.891 c -0.468,3.25 -1.8,5.629 -3.71,7.309 -1.918,1.563 -4.461,2.422 -7.54,2.422 -4.109,0 -7.351,-1.441 -9.73,-4.223 -2.539,-2.886 -3.711,-7.648 -3.711,-14.289 0,-7.429 1.172,-12.578 3.711,-15.711 2.5,-3.008 5.738,-4.566 9.961,-4.566 3.129,0 5.629,0.976 7.66,2.656 2.07,1.793 3.359,4.922 4.219,9.262 l 16.211,-2.781 c -1.68,-7.457 -4.93,-13.079 -9.61,-16.789 -4.812,-3.829 -11.171,-5.79 -19.222,-5.79 -9.098,0 -16.328,2.891 -21.68,8.68 -5.43,5.738 -8.199,13.668 -8.199,23.86 0,10.32 2.769,18.359 8.199,23.992 5.352,5.777 12.691,8.629 21.91,8.629 7.582,0 13.711,-1.68 18.129,-4.879 4.453,-3.242 7.692,-8.211 9.613,-14.891 z m 24.719,-0.742 -14.879,2.66 c 1.68,6.09 4.571,10.551 8.629,13.551 4.219,2.89 10.199,4.301 18.36,4.301 7.351,0 12.859,-0.821 16.449,-2.621 3.48,-1.68 6.133,-3.821 7.582,-6.598 1.398,-2.652 2.148,-7.582 2.148,-14.762 l -0.238,-19.18 c 0,-5.429 0.238,-9.5 0.82,-12.031 0.508,-2.621 1.449,-5.398 2.891,-8.398 H 402.34 c -0.352,1.09 -0.93,2.648 -1.559,4.801 -0.23,0.976 -0.472,1.679 -0.582,1.918 -2.777,-2.739 -5.789,-4.809 -9.027,-6.25 -3.203,-1.29 -6.563,-2.04 -10.192,-2.04 -6.332,0 -11.371,1.801 -15.121,5.282 -3.711,3.398 -5.507,7.808 -5.507,13.078 0,3.64 0.82,6.719 2.5,9.5 1.679,2.769 4.097,4.801 7.109,6.25 3.008,1.558 7.309,2.769 13.09,3.82 7.648,1.449 12.929,2.891 15.929,4.07 v 1.719 c 0,3.242 -0.699,5.5 -2.261,6.832 -1.68,1.328 -4.571,2.028 -8.91,2.028 -2.969,0 -5.27,-0.579 -6.95,-1.789 -1.558,-1.098 -2.847,-3.129 -3.949,-6.141 z m 22.07,-13.32 c -2.031,-0.7 -5.39,-1.559 -9.96,-2.5 -4.571,-0.969 -7.54,-1.95 -8.981,-2.887 -2.187,-1.563 -3.238,-3.473 -3.238,-5.781 0,-2.27 0.82,-4.301 2.609,-5.981 1.68,-1.68 3.871,-2.531 6.488,-2.531 3.012,0 5.903,0.973 8.512,2.891 2.07,1.558 3.36,3.351 3.988,5.5 0.352,1.449 0.582,4.109 0.582,8.05 z m 48.129,-29.758 H 430.66 v 62.301 h 15.238 v -8.903 c 2.653,4.211 5.043,6.992 7.114,8.281 2.148,1.321 4.41,1.911 7.187,1.911 3.711,0 7.301,-1.051 10.781,-3.09 l -5.039,-14.289 c -2.851,1.789 -5.39,2.648 -7.781,2.648 -2.301,0 -4.332,-0.621 -5.89,-1.949 -1.571,-1.172 -2.891,-3.481 -3.719,-6.832 -0.973,-3.359 -1.442,-10.32 -1.442,-20.859 z m 66.95,19.679 16.453,-2.769 c -2.032,-5.981 -5.391,-10.551 -9.961,-13.789 -4.571,-3.121 -10.321,-4.692 -17.031,-4.692 -10.942,0 -18.829,3.641 -24.141,10.711 -4.07,5.618 -6.098,12.848 -6.098,21.481 0,10.308 2.739,18.359 8.047,24.219 5.391,5.898 12.223,8.75 20.512,8.75 9.211,0 16.558,-3.012 21.832,-9.102 5.387,-6.129 7.93,-15.59 7.699,-28.199 h -41.172 c 0.11,-4.93 1.442,-8.641 3.942,-11.41 2.539,-2.731 5.781,-4.059 9.488,-4.059 2.5,0 4.691,0.699 6.492,2.149 1.789,1.32 3.117,3.589 3.938,6.71 z m 0.98,16.68 c -0.117,4.809 -1.328,8.399 -3.711,10.899 -2.308,2.543 -5.199,3.75 -8.558,3.75 -3.59,0 -6.442,-1.329 -8.86,-3.938 -2.269,-2.66 -3.48,-6.141 -3.359,-10.711 z m 63.121,49.57 h 16.4492 V 367.4605 H 578.16 Z m 0,-23.628 h 16.4492 V 296.8012 H 578.16 Z m 33.36,23.628 h 16.4492 V 296.8003 H 611.52 Z m 95.16,-23.628 V 346.02 h -11.289 v -25.2 c 0,-5.199 0.121,-8.16 0.347,-9.019 0.242,-0.821 0.742,-1.449 1.453,-2.031 0.739,-0.629 1.68,-0.821 2.77,-0.821 1.559,0 3.711,0.461 6.719,1.563 l 1.332,-12.742 c -3.871,-1.68 -8.172,-2.54 -12.973,-2.54 -3.008,0 -5.629,0.508 -8.051,1.45 -2.379,1.09 -4.058,2.379 -5.148,3.98 -1.219,1.57 -1.918,3.719 -2.391,6.488 -0.23,1.911 -0.5,5.743 -0.5,11.641 v 27.231 h -7.539 v 13.082 h 7.539 v 12.347 l 16.442,9.723 v -22.07 z m 47.539,-42.622 16.402,-2.769 c -2.031,-5.981 -5.391,-10.551 -9.961,-13.789 -4.57,-3.121 -10.308,-4.692 -17.031,-4.692 -10.899,0 -18.828,3.641 -24.098,10.711 -4.101,5.618 -6.133,12.848 -6.133,21.481 0,10.308 2.774,18.359 8.051,24.219 5.391,5.898 12.223,8.75 20.5,8.75 9.262,0 16.571,-3.012 21.84,-9.102 5.43,-6.129 7.93,-15.59 7.691,-28.199 h -41.171 c 0.121,-4.93 1.453,-8.641 3.992,-11.41 2.5,-2.731 5.738,-4.059 9.449,-4.059 2.539,0 4.691,0.699 6.48,2.149 1.801,1.32 3.129,3.589 3.989,6.71 z m 0.941,16.68 c -0.121,4.809 -1.332,8.399 -3.711,10.899 -2.308,2.543 -5.16,3.75 -8.519,3.75 -3.59,0 -6.481,-1.329 -8.91,-3.938 -2.258,-2.66 -3.469,-6.141 -3.36,-10.711 z m 28.551,25.942 h 15.117 v -8.551 c 5.434,6.64 11.871,9.84 19.453,9.84 3.949,0 7.418,-0.821 10.309,-2.379 2.89,-1.684 5.281,-4.223 7.191,-7.461 2.77,3.238 5.668,5.777 8.91,7.461 3.118,1.558 6.481,2.379 10.079,2.379 4.57,0 8.39,-0.942 11.64,-2.731 3.121,-1.922 5.5,-4.57 7.07,-8.172 1.051,-2.648 1.68,-6.949 1.68,-12.968 v -39.719 h -16.449 v 35.539 c 0,6.211 -0.59,10.199 -1.68,12 -1.562,2.262 -3.832,3.469 -7.07,3.469 -2.301,0 -4.449,-0.7 -6.481,-2.028 -2.031,-1.441 -3.48,-3.511 -4.46,-6.25 -0.821,-2.769 -1.29,-6.953 -1.29,-12.851 v -29.879 h -16.441 v 34.097 c 0,5.981 -0.269,9.961 -0.859,11.762 -0.59,1.68 -1.559,3 -2.731,3.82 -1.219,0.981 -2.898,1.329 -5.078,1.329 -2.5,0 -4.769,-0.7 -6.84,-2.028 -2.031,-1.332 -3.48,-3.359 -4.301,-5.902 -0.859,-2.649 -1.32,-6.828 -1.32,-12.848 v -30.23 h -16.449 z m 107.379,0 h 15.39 v -9.141 c 2.04,3.129 4.649,5.629 8.051,7.578 3.481,1.91 7.188,2.852 11.367,2.852 7.223,0 13.321,-2.852 18.364,-8.512 5.039,-5.629 7.578,-13.559 7.578,-23.641 0,-10.429 -2.539,-18.59 -7.578,-24.328 -5.16,-5.789 -11.25,-8.68 -18.481,-8.68 -3.48,0 -6.601,0.75 -9.332,2.04 -2.898,1.441 -5.789,3.75 -8.91,7.109 V 273.16 H 891.09 Z m 16.211,-30.153 c 0,-7.07 1.449,-12.23 4.219,-15.59 2.742,-3.359 6.101,-5.039 10.082,-5.039 3.828,0 6.949,1.559 9.488,4.692 2.621,3.008 3.832,8.039 3.832,15.109 0,6.488 -1.332,11.41 -3.981,14.539 -2.5,3.238 -5.742,4.801 -9.57,4.801 -4.101,0 -7.461,-1.563 -10.082,-4.691 -2.66,-3.122 -3.988,-7.692 -3.988,-13.821 z m 57.621,53.781 h 16.4492 V 296.8003 H 964.922 Z m 45.588,-42.851 -14.889,2.66 c 1.68,6.09 4.579,10.551 8.679,13.551 4.18,2.89 10.19,4.301 18.36,4.301 7.3,0 12.81,-0.821 16.4,-2.621 3.52,-1.68 6.14,-3.821 7.58,-6.598 1.45,-2.652 2.15,-7.582 2.15,-14.762 l -0.24,-19.18 c 0,-5.429 0.24,-9.5 0.86,-12.031 0.47,-2.621 1.45,-5.398 2.86,-8.398 h -16.29 c -0.39,1.09 -0.98,2.648 -1.6,4.801 -0.24,0.976 -0.47,1.679 -0.59,1.918 -2.74,-2.739 -5.74,-4.809 -8.99,-6.25 -3.24,-1.29 -6.6,-2.04 -10.19,-2.04 -6.37,0 -11.41,1.801 -15.161,5.282 -3.711,3.398 -5.5,7.808 -5.5,13.078 0,3.64 0.852,6.719 2.531,9.5 1.68,2.769 4.07,4.801 7.07,6.25 3.01,1.558 7.35,2.769 13.09,3.82 7.7,1.449 12.97,2.891 15.98,4.07 v 1.719 c 0,3.242 -0.74,5.5 -2.31,6.832 -1.68,1.328 -4.57,2.028 -8.86,2.028 -3.01,0 -5.28,-0.579 -6.96,-1.789 -1.56,-1.098 -2.89,-3.129 -3.98,-6.141 z m 22.11,-13.32 c -2.07,-0.7 -5.43,-1.559 -9.96,-2.5 -4.57,-0.969 -7.58,-1.95 -9.03,-2.887 -2.15,-1.563 -3.24,-3.473 -3.24,-5.781 0,-2.27 0.86,-4.301 2.66,-5.981 1.68,-1.68 3.83,-2.531 6.48,-2.531 3.01,0 5.86,0.973 8.52,2.891 2.03,1.558 3.36,3.351 3.94,5.5 0.35,1.449 0.63,4.109 0.63,8.05 z m 60.82,32.543 V 346.02 h -11.29 v -25.2 c 0,-5.199 0.12,-8.16 0.39,-9.019 0.19,-0.821 0.7,-1.449 1.41,-2.031 0.74,-0.629 1.67,-0.821 2.77,-0.821 1.56,0 3.71,0.461 6.72,1.563 l 1.33,-12.742 c -3.87,-1.68 -8.17,-2.54 -12.97,-2.54 -3.01,0 -5.63,0.508 -8.05,1.45 -2.38,1.09 -4.06,2.379 -5.16,3.98 -1.21,1.57 -1.91,3.719 -2.42,6.488 -0.19,1.911 -0.47,5.743 -0.47,11.641 v 27.231 h -7.54 v 13.082 h 7.54 v 12.347 l 16.45,9.723 v -22.07 z m 47.54,-42.622 16.4,-2.769 c -2.03,-5.981 -5.39,-10.551 -9.96,-13.789 -4.57,-3.121 -10.31,-4.692 -17.03,-4.692 -10.94,0 -18.83,3.641 -24.1,10.711 -4.1,5.618 -6.13,12.848 -6.13,21.481 0,10.308 2.73,18.359 8.04,24.219 5.39,5.898 12.23,8.75 20.51,8.75 9.26,0 16.56,-3.012 21.84,-9.102 5.43,-6.129 7.93,-15.59 7.69,-28.199 h -41.17 c 0.12,-4.93 1.45,-8.641 3.98,-11.41 2.5,-2.731 5.75,-4.059 9.46,-4.059 2.54,0 4.69,0.699 6.48,2.149 1.8,1.32 3.13,3.589 3.99,6.71 z m 0.93,16.68 c -0.11,4.809 -1.32,8.399 -3.71,10.899 -2.3,2.543 -5.15,3.75 -8.51,3.75 -3.6,0 -6.49,-1.329 -8.91,-3.938 -2.26,-2.66 -3.48,-6.141 -3.36,-10.711 z m 62.66,25.942 h 15.35 v -9.141 c 2.03,3.129 4.69,5.629 8.05,7.578 3.48,1.91 7.19,2.852 11.37,2.852 7.22,0 13.32,-2.852 18.36,-8.512 5.03,-5.629 7.57,-13.559 7.57,-23.641 0,-10.429 -2.54,-18.59 -7.57,-24.328 -5.16,-5.789 -11.25,-8.68 -18.44,-8.68 -3.52,0 -6.6,0.75 -9.38,2.04 -2.89,1.441 -5.78,3.75 -8.9,7.109 V 273.16 h -16.41 z m 16.17,-30.153 c 0,-7.07 1.45,-12.23 4.22,-15.59 2.77,-3.359 6.09,-5.039 10.08,-5.039 3.83,0 6.95,1.559 9.49,4.692 2.62,3.008 3.83,8.039 3.83,15.109 0,6.488 -1.33,11.41 -3.98,14.539 -2.5,3.238 -5.75,4.801 -9.58,4.801 -4.1,0 -7.46,-1.563 -10.07,-4.691 -2.66,-3.122 -3.99,-7.692 -3.99,-13.821 z m 93.64,-12.469 16.4,-2.769 c -2.03,-5.981 -5.39,-10.551 -9.92,-13.789 -4.57,-3.121 -10.35,-4.692 -17.07,-4.692 -10.9,0 -18.83,3.641 -24.1,10.711 -4.1,5.618 -6.14,12.848 -6.14,21.481 0,10.308 2.78,18.359 8.05,24.219 5.39,5.898 12.23,8.75 20.51,8.75 9.26,0 16.56,-3.012 21.84,-9.102 5.43,-6.129 7.93,-15.59 7.69,-28.199 h -41.17 c 0.12,-4.93 1.44,-8.641 3.98,-11.41 2.5,-2.731 5.75,-4.059 9.46,-4.059 2.54,0 4.68,0.699 6.48,2.149 1.8,1.32 3.13,3.589 3.99,6.71 z m 0.93,16.68 c -0.11,4.809 -1.33,8.399 -3.71,10.899 -2.26,2.543 -5.15,3.75 -8.51,3.75 -3.6,0 -6.49,-1.329 -8.87,-3.938 -2.31,-2.66 -3.52,-6.141 -3.36,-10.711 z m 45.47,-36.359 h -16.44 v 62.301 h 15.27 v -8.903 c 2.62,4.211 5.04,6.992 7.07,8.281 2.15,1.321 4.41,1.911 7.19,1.911 3.71,0 7.3,-1.051 10.82,-3.09 l -5.04,-14.289 c -2.89,1.789 -5.43,2.648 -7.81,2.648 -2.31,0 -4.34,-0.621 -5.9,-1.949 -1.56,-1.172 -2.85,-3.481 -3.71,-6.832 -0.94,-3.359 -1.45,-10.32 -1.45,-20.859 z m 118.56,43.82 -16.18,-2.891 c -0.5,3.25 -1.79,5.629 -3.75,7.309 -1.91,1.563 -4.41,2.422 -7.53,2.422 -4.11,0 -7.35,-1.441 -9.73,-4.223 -2.5,-2.886 -3.71,-7.648 -3.71,-14.289 0,-7.429 1.21,-12.578 3.71,-15.711 2.54,-3.008 5.74,-4.566 9.96,-4.566 3.12,0 5.62,0.976 7.69,2.656 2.04,1.793 3.36,4.922 4.18,9.262 l 16.22,-2.781 c -1.68,-7.457 -4.93,-13.079 -9.61,-16.789 -4.81,-3.829 -11.18,-5.79 -19.18,-5.79 -9.14,0 -16.33,2.891 -21.72,8.68 -5.43,5.738 -8.17,13.668 -8.17,23.86 0,10.32 2.74,18.359 8.17,23.992 5.39,5.777 12.69,8.629 21.95,8.629 7.54,0 13.67,-1.68 18.13,-4.879 4.41,-3.242 7.65,-8.211 9.57,-14.891 z m 28.2,-43.82 h -16.45 v 62.301 h 15.28 v -8.903 c 2.61,4.211 5.04,6.992 7.07,8.281 2.15,1.321 4.41,1.911 7.18,1.911 3.72,0 7.35,-1.051 10.83,-3.09 l -5.04,-14.289 c -2.89,1.789 -5.43,2.648 -7.82,2.648 -2.26,0 -4.33,-0.621 -5.89,-1.949 -1.57,-1.172 -2.86,-3.481 -3.72,-6.832 -0.93,-3.359 -1.44,-10.32 -1.44,-20.859 z m 66.95,19.679 16.49,-2.769 c -2.07,-5.981 -5.43,-10.551 -10,-13.789 -4.53,-3.121 -10.32,-4.692 -17.03,-4.692 -10.9,0 -18.83,3.641 -24.11,10.711 -4.1,5.618 -6.13,12.848 -6.13,21.481 0,10.308 2.77,18.359 8.05,24.219 5.39,5.898 12.22,8.75 20.51,8.75 9.25,0 16.56,-3.012 21.83,-9.102 5.43,-6.129 7.93,-15.59 7.7,-28.199 h -41.18 c 0.12,-4.93 1.45,-8.641 3.99,-11.41 2.5,-2.731 5.74,-4.059 9.45,-4.059 2.54,0 4.69,0.699 6.49,2.149 1.79,1.32 3.12,3.589 3.94,6.71 z m 0.98,16.68 c -0.12,4.809 -1.33,8.399 -3.71,10.899 -2.31,2.543 -5.16,3.75 -8.52,3.75 -3.59,0 -6.48,-1.329 -8.9,-3.938 -2.27,-2.66 -3.48,-6.141 -3.36,-10.711 z m 41.99,6.719 -14.88,2.66 c 1.68,6.09 4.57,10.551 8.63,13.551 4.22,2.89 10.24,4.301 18.4,4.301 7.3,0 12.81,-0.821 16.41,-2.621 3.47,-1.68 6.13,-3.821 7.57,-6.598 1.45,-2.652 2.15,-7.582 2.15,-14.762 l -0.23,-19.18 c 0,-5.429 0.23,-9.5 0.86,-12.031 0.47,-2.621 1.4,-5.398 2.85,-8.398 h -16.33 c -0.35,1.09 -0.94,2.648 -1.52,4.801 -0.28,0.976 -0.51,1.679 -0.63,1.918 -2.73,-2.739 -5.74,-4.809 -8.98,-6.25 -3.24,-1.29 -6.6,-2.04 -10.2,-2.04 -6.36,0 -11.4,1.801 -15.11,5.282 -3.75,3.398 -5.55,7.808 -5.55,13.078 0,3.64 0.86,6.719 2.54,9.5 1.68,2.769 4.06,4.801 7.07,6.25 3.01,1.558 7.3,2.769 13.08,3.82 7.7,1.449 12.97,2.891 15.94,4.07 v 1.719 c 0,3.242 -0.7,5.5 -2.26,6.832 -1.68,1.328 -4.57,2.028 -8.87,2.028 -3.01,0 -5.28,-0.579 -6.95,-1.789 -1.57,-1.098 -2.9,-3.129 -3.99,-6.141 z m 22.07,-13.32 c -2.03,-0.7 -5.39,-1.559 -9.92,-2.5 -4.57,-0.969 -7.58,-1.95 -9.02,-2.887 -2.15,-1.563 -3.25,-3.473 -3.25,-5.781 0,-2.27 0.86,-4.301 2.66,-5.981 1.68,-1.68 3.83,-2.531 6.48,-2.531 2.97,0 5.86,0.973 8.52,2.891 2.03,1.558 3.36,3.351 3.95,5.5 0.35,1.449 0.58,4.109 0.58,8.05 z m 48.13,-29.758 h -16.45 v 62.301 h 15.27 v -8.903 c 2.62,4.211 5.04,6.992 7.07,8.281 2.15,1.321 4.46,1.911 7.19,1.911 3.71,0 7.35,-1.051 10.82,-3.09 l -5.04,-14.289 c -2.89,1.789 -5.43,2.648 -7.81,2.648 -2.26,0 -4.33,-0.621 -5.9,-1.949 -1.52,-1.172 -2.85,-3.481 -3.71,-6.832 -0.94,-3.359 -1.44,-10.32 -1.44,-20.859 z m 66.99,19.679 16.4,-2.769 c -2.03,-5.981 -5.39,-10.551 -9.96,-13.789 -4.53,-3.121 -10.31,-4.692 -17.03,-4.692 -10.9,0 -18.83,3.641 -24.1,10.711 -4.1,5.618 -6.13,12.848 -6.13,21.481 0,10.308 2.77,18.359 8.05,24.219 5.39,5.898 12.22,8.75 20.5,8.75 9.26,0 16.57,-3.012 21.84,-9.102 5.43,-6.129 7.93,-15.59 7.69,-28.199 h -41.17 c 0.12,-4.93 1.45,-8.641 3.99,-11.41 2.5,-2.731 5.74,-4.059 9.45,-4.059 2.54,0 4.69,0.699 6.48,2.149 1.8,1.32 3.13,3.589 3.99,6.71 z m 0.94,16.68 c -0.12,4.809 -1.33,8.399 -3.71,10.899 -2.27,2.543 -5.16,3.75 -8.52,3.75 -3.59,0 -6.48,-1.329 -8.91,-3.938 -2.26,-2.66 -3.47,-6.141 -3.36,-10.711 z m 63.12,49.57 h 16.4492 V 296.8003 H 1818.71 Z m 45.59,-42.851 -14.85,2.66 c 1.64,6.09 4.53,10.551 8.64,13.551 4.18,2.89 10.19,4.301 18.36,4.301 7.3,0 12.81,-0.821 16.4,-2.621 3.52,-1.68 6.13,-3.821 7.58,-6.598 1.45,-2.652 2.15,-7.582 2.15,-14.762 l -0.24,-19.18 c 0,-5.429 0.24,-9.5 0.86,-12.031 0.47,-2.621 1.45,-5.398 2.85,-8.398 h -16.28 c -0.39,1.09 -0.98,2.648 -1.57,4.801 -0.23,0.976 -0.5,1.679 -0.58,1.918 -2.78,-2.739 -5.78,-4.809 -9.03,-6.25 -3.24,-1.29 -6.6,-2.04 -10.19,-2.04 -6.37,0 -11.41,1.801 -15.12,5.282 -3.75,3.398 -5.55,7.808 -5.55,13.078 0,3.64 0.86,6.719 2.54,9.5 1.68,2.769 4.07,4.801 7.07,6.25 3.01,1.558 7.35,2.769 13.09,3.82 7.69,1.449 12.97,2.891 15.98,4.07 v 1.719 c 0,3.242 -0.75,5.5 -2.31,6.832 -1.68,1.328 -4.57,2.028 -8.87,2.028 -3,0 -5.27,-0.579 -6.95,-1.789 -1.56,-1.098 -2.89,-3.129 -3.98,-6.141 z m 22.11,-13.32 c -2.07,-0.7 -5.43,-1.559 -9.96,-2.5 -4.57,-0.969 -7.58,-1.95 -9.03,-2.887 -2.15,-1.563 -3.24,-3.473 -3.24,-5.781 0,-2.27 0.86,-4.301 2.66,-5.981 1.68,-1.68 3.82,-2.531 6.48,-2.531 3.01,0 5.86,0.973 8.52,2.891 2.03,1.558 3.36,3.351 3.94,5.5 0.39,1.449 0.63,4.109 0.63,8.05 z m 82.93,-29.758 -25.12,62.301 h 17.3 l 11.64,-31.801 3.48,-10.582 c 0.82,2.66 1.45,4.453 1.68,5.269 0.47,1.84 1.06,3.633 1.8,5.313 l 11.87,31.801 h 16.92 l -24.85,-62.301 z m 45.7,31.91 c 0,5.551 1.33,10.82 4.06,15.859 2.66,5.16 6.49,9.102 11.41,11.758 4.92,2.774 10.43,4.063 16.56,4.063 9.49,0 17.15,-3.012 23.16,-9.102 5.98,-6.25 8.99,-13.91 8.99,-23.277 0,-9.492 -3.01,-17.274 -9.1,-23.403 -6.02,-6.25 -13.67,-9.379 -22.93,-9.379 -5.63,0 -11.17,1.329 -16.33,3.829 -5.16,2.66 -9.1,6.41 -11.76,11.453 -2.73,5.039 -4.06,11.008 -4.06,18.199 z m 16.91,-0.82 c 0,-6.25 1.45,-10.942 4.46,-14.301 2.85,-3.238 6.44,-4.918 10.78,-4.918 4.33,0 7.93,1.68 10.82,4.918 2.85,3.359 4.29,8.051 4.29,14.422 0,5.968 -1.44,10.816 -4.29,14.019 -2.89,3.239 -6.49,4.918 -10.82,4.918 -4.34,0 -7.93,-1.679 -10.78,-4.918 -3.01,-3.203 -4.46,-8.051 -4.46,-14.14 z m 54.38,-13.551 16.56,2.5 c 0.7,-3.129 2.15,-5.629 4.3,-7.192 2.15,-1.679 5.15,-2.5 8.98,-2.5 4.22,0 7.46,0.821 9.61,2.383 1.45,1.059 2.19,2.5 2.19,4.297 0,1.332 -0.39,2.301 -1.21,3.121 -0.86,0.86 -2.66,1.571 -5.51,2.192 -13.2,2.968 -21.76,5.629 -25.2,8.007 -4.96,3.512 -7.46,8.161 -7.46,14.063 0,5.508 2.15,9.961 6.37,13.668 4.3,3.711 10.9,5.512 19.81,5.512 8.51,0 14.88,-1.411 19.06,-4.18 4.06,-2.77 6.95,-6.832 8.51,-12.34 l -15.46,-2.891 c -0.59,2.379 -1.92,4.29 -3.83,5.622 -1.8,1.328 -4.46,1.918 -7.93,1.918 -4.34,0 -7.46,-0.59 -9.38,-1.801 -1.33,-0.821 -1.91,-2.028 -1.91,-3.36 0,-1.168 0.58,-2.148 1.68,-3.007 1.44,-1.051 6.6,-2.622 15.39,-4.653 8.87,-1.91 14.96,-4.449 18.44,-7.34 3.47,-2.847 5.15,-6.949 5.15,-12.23 0,-5.617 -2.38,-10.578 -7.19,-14.758 -4.68,-4.101 -11.75,-6.141 -21.13,-6.141 -8.51,0 -15.23,1.68 -20.12,5.161 -4.96,3.359 -8.2,8.05 -9.72,13.949 z m 101.01,44.762 V 346.02 h -11.29 v -25.2 c 0,-5.199 0.12,-8.16 0.4,-9.019 0.23,-0.821 0.7,-1.449 1.4,-2.031 0.74,-0.629 1.68,-0.821 2.77,-0.821 1.57,0 3.72,0.461 6.72,1.563 l 1.33,-12.742 c -3.83,-1.68 -8.16,-2.54 -12.97,-2.54 -3,0 -5.62,0.508 -8.04,1.45 -2.39,1.09 -4.07,2.379 -5.16,3.98 -1.17,1.57 -1.91,3.719 -2.38,6.488 -0.24,1.911 -0.47,5.743 -0.47,11.641 v 27.231 h -7.58 v 13.082 h 7.58 v 12.347 l 16.4,9.723 v -22.07 z m 27.27,-62.301 h -16.45 v 62.301 h 15.24 v -8.903 c 2.62,4.211 5.04,6.992 7.07,8.281 2.15,1.321 4.45,1.911 7.19,1.911 3.75,0 7.34,-1.051 10.82,-3.09 l -5.04,-14.289 c -2.89,1.789 -5.39,2.648 -7.82,2.648 -2.26,0 -4.29,-0.621 -5.85,-1.949 -1.57,-1.172 -2.89,-3.481 -3.75,-6.832 -0.94,-3.359 -1.41,-10.32 -1.41,-20.859 z m 43.16,43.078 -14.88,2.66 c 1.72,6.09 4.57,10.551 8.67,13.551 4.18,2.89 10.2,4.301 18.36,4.301 7.31,0 12.81,-0.821 16.45,-2.621 3.47,-1.68 6.09,-3.821 7.54,-6.598 1.44,-2.652 2.14,-7.582 2.14,-14.762 l -0.23,-19.18 c 0,-5.429 0.23,-9.5 0.86,-12.031 0.47,-2.621 1.44,-5.398 2.85,-8.398 h -16.29 c -0.35,1.09 -0.97,2.648 -1.56,4.801 -0.23,0.976 -0.51,1.679 -0.59,1.918 -2.77,-2.739 -5.78,-4.809 -9.02,-6.25 -3.24,-1.29 -6.6,-2.04 -10.19,-2.04 -6.37,0 -11.41,1.801 -15.12,5.282 -3.71,3.398 -5.55,7.808 -5.55,13.078 0,3.64 0.86,6.719 2.54,9.5 1.68,2.769 4.06,4.801 7.07,6.25 3.01,1.558 7.34,2.769 13.09,3.82 7.69,1.449 12.97,2.891 15.97,4.07 v 1.719 c 0,3.242 -0.74,5.5 -2.3,6.832 -1.68,1.328 -4.53,2.028 -8.87,2.028 -3.01,0 -5.27,-0.579 -6.95,-1.789 -1.56,-1.098 -2.89,-3.129 -3.99,-6.141 z m 22.11,-13.32 c -2.07,-0.7 -5.43,-1.559 -9.96,-2.5 -4.57,-0.969 -7.58,-1.95 -9.02,-2.887 -2.15,-1.563 -3.2,-3.473 -3.2,-5.781 0,-2.27 0.82,-4.301 2.61,-5.981 1.68,-1.68 3.83,-2.531 6.49,-2.531 3,0 5.86,0.973 8.51,2.891 2.03,1.558 3.36,3.351 3.95,5.5 0.39,1.449 0.62,4.109 0.62,8.05 z m 64.18,-33.707 18.83,-2.262 c 0.39,-2.309 1.09,-3.75 2.19,-4.57 1.56,-1.219 4.06,-1.801 7.46,-1.801 4.3,0 7.42,0.582 9.57,1.91 1.44,0.82 2.66,2.269 3.36,4.18 0.47,1.332 0.7,3.871 0.7,7.582 l 0.16,9.097 c -5.04,-6.828 -11.29,-10.187 -18.75,-10.187 -8.4,0 -15,3.59 -19.88,10.539 -3.87,5.672 -5.79,12.621 -5.79,20.898 0,10.434 2.54,18.364 7.54,23.91 5.08,5.512 11.29,8.243 18.75,8.243 7.66,0 14.03,-3.36 19.07,-10.082 v 8.793 h 15.35 v -55.821 c 0,-7.422 -0.59,-12.851 -1.8,-16.562 -1.17,-3.598 -2.85,-6.489 -5.16,-8.52 -2.14,-2.027 -5.04,-3.711 -8.75,-4.801 -3.59,-1.168 -8.28,-1.796 -13.79,-1.796 -10.58,0 -18,1.796 -22.46,5.386 -4.41,3.711 -6.6,8.282 -6.6,13.793 0,0.629 0,1.207 0,2.071 z m 14.77,36.367 c 0,-6.598 1.33,-11.41 3.83,-14.528 2.54,-3.011 5.78,-4.57 9.49,-4.57 3.94,0 7.3,1.559 10.08,4.68 2.89,3.25 4.22,7.82 4.22,14.07 0,6.328 -1.33,11.129 -3.99,14.25 -2.62,3.129 -5.98,4.688 -10.08,4.688 -3.94,0 -7.18,-1.559 -9.72,-4.571 -2.5,-3.117 -3.83,-7.808 -3.83,-14.019 z m 75.86,-32.418 h -16.45 v 62.301 h 15.24 v -8.903 c 2.65,4.211 5.04,6.992 7.07,8.281 2.18,1.321 4.45,1.911 7.18,1.911 3.75,0 7.35,-1.051 10.82,-3.09 l -5.03,-14.289 c -2.9,1.789 -5.4,2.648 -7.82,2.648 -2.26,0 -4.29,-0.621 -5.86,-1.949 -1.56,-1.172 -2.89,-3.481 -3.71,-6.832 -0.97,-3.359 -1.44,-10.32 -1.44,-20.859 z m 43.2,43.078 -14.88,2.66 c 1.68,6.09 4.53,10.551 8.63,13.551 4.18,2.89 10.2,4.301 18.36,4.301 7.3,0 12.81,-0.821 16.45,-2.621 3.47,-1.68 6.09,-3.821 7.53,-6.598 1.45,-2.652 2.19,-7.582 2.19,-14.762 l -0.23,-19.18 c 0,-5.429 0.23,-9.5 0.82,-12.031 0.47,-2.621 1.44,-5.398 2.89,-8.398 h -16.33 c -0.35,1.09 -0.98,2.648 -1.56,4.801 -0.24,0.976 -0.47,1.679 -0.59,1.918 -2.77,-2.739 -5.78,-4.809 -9.02,-6.25 -3.24,-1.29 -6.6,-2.04 -10.2,-2.04 -6.36,0 -11.4,1.801 -15.11,5.282 -3.72,3.398 -5.51,7.808 -5.51,13.078 0,3.64 0.82,6.719 2.5,9.5 1.68,2.769 4.06,4.801 7.11,6.25 2.97,1.558 7.3,2.769 13.04,3.82 7.7,1.449 12.97,2.891 15.98,4.07 v 1.719 c 0,3.242 -0.7,5.5 -2.26,6.832 -1.72,1.328 -4.58,2.028 -8.91,2.028 -3.01,0 -5.27,-0.579 -6.95,-1.789 -1.57,-1.098 -2.89,-3.129 -3.95,-6.141 z m 22.07,-13.32 c -2.03,-0.7 -5.43,-1.559 -9.96,-2.5 -4.57,-0.969 -7.58,-1.95 -8.98,-2.887 -2.19,-1.563 -3.25,-3.473 -3.25,-5.781 0,-2.27 0.82,-4.301 2.62,-5.981 1.68,-1.68 3.87,-2.531 6.49,-2.531 3,0 5.85,0.973 8.51,2.891 2.03,1.558 3.36,3.351 3.99,5.5 0.35,1.449 0.58,4.109 0.58,8.05 z m 25.55,32.543 h 9.14 v 4.687 c 0,5.27 0.58,9.223 1.68,11.762 1.05,2.609 3.2,4.648 6.21,6.328 3.01,1.562 6.72,2.422 11.41,2.422 4.68,0 9.25,-0.75 13.78,-2.153 l -2.03,-11.527 c -2.73,0.707 -5.27,1.059 -7.81,1.059 -2.38,0 -4.18,-0.59 -5.27,-1.68 -0.94,-1.09 -1.53,-3.238 -1.53,-6.48 v -4.418 h 12.35 v -12.973 h -12.35 v -49.328 h -16.44 v 49.328 h -9.14 z m 46.56,23.628 h 16.4492 V 367.4605 H 2572.07 Z m 0,-23.628 h 16.4492 V 296.8012 H 2572.07 Z m 87.85,-18.481 -16.21,-2.891 c -0.47,3.25 -1.8,5.629 -3.71,7.309 -1.91,1.563 -4.45,2.422 -7.58,2.422 -4.06,0 -7.3,-1.441 -9.69,-4.223 -2.53,-2.886 -3.75,-7.648 -3.75,-14.289 0,-7.429 1.22,-12.578 3.75,-15.711 2.5,-3.008 5.75,-4.566 9.97,-4.566 3.08,0 5.62,0.976 7.65,2.656 2.03,1.793 3.36,4.922 4.22,9.262 l 16.17,-2.781 c -1.68,-7.457 -4.92,-13.079 -9.57,-16.789 -4.8,-3.829 -11.17,-5.79 -19.22,-5.79 -9.1,0 -16.33,2.891 -21.72,8.68 -5.39,5.738 -8.16,13.668 -8.16,23.86 0,10.32 2.77,18.359 8.16,23.992 5.39,5.777 12.74,8.629 21.96,8.629 7.58,0 13.71,-1.68 18.12,-4.879 4.46,-3.242 7.7,-8.211 9.61,-14.891 z m 24.73,-0.742 -14.88,2.66 c 1.68,6.09 4.53,10.551 8.63,13.551 4.18,2.89 10.19,4.301 18.36,4.301 7.3,0 12.85,-0.821 16.44,-2.621 3.48,-1.68 6.1,-3.821 7.54,-6.598 1.45,-2.652 2.15,-7.582 2.15,-14.762 l -0.19,-19.18 c 0,-5.429 0.19,-9.5 0.82,-12.031 0.46,-2.621 1.44,-5.398 2.89,-8.398 h -16.33 c -0.35,1.09 -0.98,2.648 -1.56,4.801 -0.24,0.976 -0.47,1.679 -0.59,1.918 -2.77,-2.739 -5.78,-4.809 -9.02,-6.25 -3.25,-1.29 -6.61,-2.04 -10.2,-2.04 -6.37,0 -11.41,1.801 -15.12,5.282 -3.71,3.398 -5.5,7.808 -5.5,13.078 0,3.64 0.82,6.719 2.5,9.5 1.68,2.769 4.1,4.801 7.11,6.25 2.96,1.558 7.3,2.769 13.04,3.82 7.7,1.449 12.97,2.891 15.98,4.07 v 1.719 c 0,3.242 -0.74,5.5 -2.27,6.832 -1.72,1.328 -4.57,2.028 -8.9,2.028 -3.01,0 -5.28,-0.579 -6.96,-1.789 -1.56,-1.098 -2.89,-3.129 -3.94,-6.141 z m 22.07,-13.32 c -2.03,-0.7 -5.39,-1.559 -9.96,-2.5 -4.57,-0.969 -7.54,-1.95 -8.99,-2.887 -2.18,-1.563 -3.24,-3.473 -3.24,-5.781 0,-2.27 0.82,-4.301 2.62,-5.981 1.68,-1.68 3.87,-2.531 6.48,-2.531 3.01,0 5.86,0.973 8.52,2.891 2.03,1.558 3.36,3.351 3.98,5.5 0.35,1.449 0.59,4.109 0.59,8.05 z m 32.26,-13.321 h 16.4492 V 296.8005 H 2738.98 Z"
       style="fill:#222124;fill-opacity:1;fill-rule:evenodd;stroke:none"
       transform="matrix(0.13333333,0,0,-0.13333333,0,128)" />
    <path
       id="path4"
       d="m 1088.16,960 c 31.06,0 56.49,-25.391 56.49,-56.48 V 752.77 c -0.16,1.101 -0.31,2.109 -0.51,3.171 l -16.48,-4.921 c 2.77,-19.571 -9.14,-38.911 -28.6,-44.731 l -35.47,-10.668 v 122.738 h -36.75 V 684.609 L 967.66,666.84 c -9.109,5.93 -11.14,18.512 -11.14,31.398 v 86.172 h 42.859 v 34.18 H 956.52 v 49.851 L 909.449,854.57 v -35.98 h -25.39 v -34.18 h 25.39 v -91.398 c 0,-14.032 0.903,-28.672 6.961,-41.563 l -11.25,-3.359 c -21.449,-6.449 -44.219,5.82 -50.672,27.262 L 813.09,813.238 c -6.41,21.453 5.859,44.223 27.262,50.672 l 193.948,58.199 c 21.4,6.442 44.22,-5.82 50.66,-27.269 l 16.37,4.93 c -9.14,30.39 -41.53,47.808 -71.95,38.71 L 835.469,880.23 c -22.418,-6.71 -37.77,-26.05 -40.668,-47.96 v 71.25 c 0,31.089 25.429,56.48 56.488,56.48 z m -42.96,-65.23 c -15.24,0 -27.58,-12.348 -27.58,-27.579 0,-15.242 12.34,-27.582 27.58,-27.582 15.23,0 27.57,12.34 27.57,27.582 0,15.231 -12.34,27.579 -27.57,27.579 z m 99.45,-156.84 c -2.89,-21.91 -18.24,-41.289 -40.67,-48.008 l -40.39,-12.113 V 624.84 h -36.75 v 41.922 l -30.43,-9.102 0.5,-28.832 c -3.941,-1.406 -8.512,-2.187 -12.57,-2.738 -6.61,-0.86 -13.36,-1.211 -20,-1.211 -14.418,0 -27.461,3.32 -37.192,11.961 l -17.07,-5.121 c -30.43,-9.098 -62.808,8.32 -71.957,38.711 l -41.359,137.89 c -0.903,3.008 -1.563,6.059 -1.961,9.059 V 666.641 c 0,-31.051 25.429,-56.442 56.488,-56.442 h 236.871 c 31.06,0 56.49,25.391 56.49,56.442 z"
       style="fill:#85243a;fill-opacity:1;fill-rule:evenodd;stroke:none"
       transform="matrix(0.13333333,0,0,-0.13333333,0,128)" />
    <path
       id="path5"
       d="m 1165.35,912.27 v -15.711 h 23.2 v -78.59 h 18.17 v 78.59 h 23.32 v 15.711 z"
       style="fill:#85243a;fill-opacity:1;fill-rule:evenodd;stroke:none"
       transform="matrix(0.13333333,0,0,-0.13333333,0,128)" />
    <path
       id="path6"
       d="m 1243.55,867.969 c 4.42,2.582 10.55,4.453 16.8,4.453 9.96,0 12.27,-4.961 12.27,-11.402 -21.72,0 -37.31,-7.899 -37.31,-24.692 0,-10.59 7.85,-19.648 20.51,-19.648 7.62,0 14.26,2.929 18.16,8.121 h 0.36 l 1.13,-6.832 h 16.33 c -0.75,4.019 -1.02,9.761 -1.02,15.551 v 23.98 c 0,14.34 -5.74,27.27 -26.99,27.27 -10.67,0 -19.14,-2.93 -23.67,-5.508 z m 243.64,-139.918 v 129.097 c 0,19.262 -9.57,27.731 -21.72,27.731 -5.9,0 -13.4,-2.457 -18.28,-9.289 h -0.28 v 36.949 h -18.16 v -94.57 h 18.16 v 39.761 c 0,9.731 7,12.821 11.57,12.821 7.85,0 10.54,-6.492 10.54,-14.813 V 728.051 Z M 1273.12,840.43 c 0,-8.321 -7.1,-11.289 -11.4,-11.289 -4.53,0 -8.6,2.699 -8.6,8.949 0,9.531 10.16,11.75 20,11.75 z m 49.73,31.64 -0.74,11.41 h -15.59 c 0.24,-5.859 0.47,-12.351 0.47,-20.468 v -45.043 h 18.17 v 33.871 c 0,11.172 6.29,16.48 14.49,16.48 1.83,0 3.32,-0.121 4.69,-0.351 v 16.562 c -1.25,0.239 -2.35,0.348 -4.07,0.348 -6.4,0 -13.75,-4.328 -16.95,-12.809 z m 73.52,3.52 h -0.28 c -3.04,5.191 -8.55,9.18 -17.14,9.18 -15.12,0 -28.25,-12.821 -28.25,-34.461 0,-17.887 10.2,-31.868 26.41,-31.868 7.46,0 13.59,3.161 17.03,8.36 h 0.24 v -4.813 c 0,-12.609 -6.72,-18.117 -16.92,-18.117 -7.26,0 -13.63,2.109 -17.69,4.219 l -3.56,-13.289 c 5.39,-2.922 13.63,-4.449 21.6,-4.449 33.28,0 34.49,23.75 34.49,36.558 v 36.918 c 0,9.141 0.28,14.922 0.63,19.652 h -15.82 z m -2.23,-30.32 c 0,-11.051 -7.34,-13.668 -11.52,-13.668 -8.6,0 -13.64,7.808 -13.64,19.218 0,12.301 5.51,20.309 13.75,20.309 6.14,0 11.41,-4.801 11.41,-13.16 z m 163.75,0.242 c 0.35,1.867 0.51,4.328 0.51,6.91 0,21.168 -10.82,32.457 -27.38,32.457 -20,0 -31.33,-16.207 -31.33,-35.039 0,-20.352 12.03,-33.039 33.16,-33.039 8.48,0 16.45,1.398 22.07,3.789 l -2.58,11.988 c -4.64,-1.558 -9.92,-2.738 -16.68,-2.738 -9.8,0 -18.16,4.5 -18.67,15.672 z m -40.9,12.109 c 0.51,6.438 4.18,15.149 12.89,15.149 8.99,0 11.8,-8.36 11.68,-15.149 z m 3.67,-72.93 -0.82,8.86 h -15.74 c 0.28,-5.781 0.51,-12.031 0.51,-19.68 v -45.82 h 18.16 v 38.98 c 0,9.918 6.76,13.559 11.64,13.559 7.74,0 10.47,-6.328 10.47,-14.34 v -38.199 h 18.17 v 40.07 c 0,18.359 -9.69,26.719 -22.23,26.719 -9.96,0.121 -16.72,-5.309 -19.77,-10.149 z m 54.42,-53.48 c 4.53,-2.582 11.76,-4.332 19.26,-4.332 17.07,0 26.87,8.199 26.87,20.699 0,9.024 -5.39,15.391 -16.95,19.961 -7.85,3.16 -10.43,5.082 -10.43,8.711 0,3.52 2.97,6.211 8.47,6.211 5.16,0 9.97,-1.871 12.9,-3.402 l 3.43,12.23 c -3.9,1.992 -9.96,3.672 -16.91,3.672 -15.24,0 -25.08,-8.941 -25.08,-20.699 0,-7.192 4.69,-14.102 17.46,-19.063 7.46,-3.051 9.81,-5.16 9.81,-9.179 0,-3.989 -3.05,-6.571 -9.46,-6.571 -5.62,0 -12.42,2.352 -15.97,4.34 z m 113.01,24.34 c 0.39,1.871 0.5,4.328 0.5,6.949 0,21.172 -10.78,32.461 -27.38,32.461 -20,0 -31.29,-16.25 -31.29,-35.082 0,-20.309 12.03,-33 33.17,-33 8.43,0 16.4,1.402 22.07,3.742 l -2.58,12 c -4.65,-1.531 -9.92,-2.699 -16.68,-2.699 -9.85,0 -18.17,4.457 -18.67,15.629 z m -40.86,12.109 c 0.5,6.481 4.18,15.192 12.89,15.192 8.94,0 11.79,-8.364 11.68,-15.192 z m 95.97,18 h -0.23 c -3.05,5.16 -8.59,9.18 -17.19,9.18 -15.08,0 -28.2,-12.852 -28.2,-34.488 0,-17.852 10.15,-31.832 26.37,-31.832 7.5,0 13.63,3.16 17.07,8.359 h 0.23 v -4.848 c 0,-12.582 -6.76,-18.082 -16.95,-18.082 -7.23,0 -13.6,2.102 -17.66,4.211 l -3.55,-13.281 c 5.39,-2.969 13.63,-4.488 21.6,-4.488 33.24,0 34.49,23.75 34.49,36.558 v 36.961 c 0,9.141 0.23,14.918 0.62,19.641 h -15.85 z m -2.18,-30.308 c 0,-11.09 -7.39,-13.672 -11.57,-13.672 -8.55,0 -13.59,7.769 -13.59,19.218 0,12.301 5.51,20.274 13.75,20.274 6.13,0 11.41,-4.801 11.41,-13.16 z m 50.7,29.339 -0.86,8.86 h -15.74 c 0.27,-5.781 0.5,-12.031 0.5,-19.68 v -45.82 h 18.17 v 38.98 c 0,9.918 6.76,13.559 11.64,13.559 7.73,0 10.47,-6.328 10.47,-14.34 v -38.199 h 18.12 v 40.07 c 0,18.359 -9.68,26.719 -22.18,26.719 -9.96,0.121 -16.68,-5.309 -19.77,-10.149 z"
       style="fill:#85243a;fill-opacity:1;fill-rule:evenodd;stroke:none"
       transform="matrix(0.13333333,0,0,-0.13333333,0,128)" />
    <path
       id="path7"
       d="m 1904.73,755.551 c 0.39,1.871 0.5,4.328 0.5,6.949 0,21.172 -10.82,32.461 -27.38,32.461 -20,0 -31.29,-16.25 -31.29,-35.082 0,-20.309 12.03,-33 33.17,-33 8.43,0 16.4,1.402 22.07,3.742 l -2.58,12 c -4.69,-1.531 -9.92,-2.699 -16.68,-2.699 -9.84,0 -18.16,4.457 -18.67,15.629 z m -40.86,12.109 c 0.51,6.481 4.18,15.192 12.89,15.192 8.94,0 11.79,-8.364 11.68,-15.192 z"
       style="fill:#85243a;fill-opacity:1;fill-rule:evenodd;stroke:none"
       transform="matrix(0.13333333,0,0,-0.13333333,0,128)" />
  </g>
</svg>
