<?xml version="1.0" encoding="UTF-8"?>
<svg xmlns="http://www.w3.org/2000/svg" xml:space="preserve" width="135.926mm" height="42.8207mm" version="1.1" style="shape-rendering:geometricPrecision; text-rendering:geometricPrecision; image-rendering:optimizeQuality; fill-rule:evenodd; clip-rule:evenodd"
viewBox="0 0 1660 523"
 xmlns:xlink="http://www.w3.org/1999/xlink">
 <g id="Livello_x0020_1">
  <metadata id="CorelCorpID_0Corel-Layer"/>
  <g id="_2516539516304">
   <path style="fill:#336699" d="M523 332c-4,33 -27,62 -61,72l-60 18 0 79 -55 0 0 -63 -46 14 1 43c-6,2 -13,3 -19,4 -10,2 -20,2 -30,2 -21,0 -41,-5 -55,-18l-26 8c-45,13 -94,-13 -107,-58l-62 -206c-1,-5 -2,-9 -3,-14l0 226c0,46 38,84 84,84l355 0c46,0 84,-38 84,-84l0 -107zm-149 -234c-22,0 -41,18 -41,41 0,23 19,41 41,41 23,0 42,-18 42,-41 0,-23 -19,-41 -42,-41zm65 -98c46,0 84,38 84,84l0 226c0,-2 0,-3 -1,-5l-24 7c4,30 -14,59 -43,67l-53 16 0 -183 -55 0 0 200 -89 26c-13,-9 -16,-27 -16,-47l0 -128 64 0 0 -52 -64 0 0 -74 -71 21 0 53 -38 0 0 52 38 0 0 136c0,21 2,43 11,62l-17 5c-32,10 -66,-8 -76,-40l-62 -207c-9,-32 9,-66 41,-75l290 -87c32,-10 66,8 76,40l24 -7c-13,-45 -62,-71 -107,-58l-290 87c-34,10 -57,39 -61,72l0 -107c0,-46 38,-84 84,-84l355 0z"/>
   <polygon style="fill:#336699" points="554,71 554,95 589,95 589,212 616,212 616,95 651,95 651,71 "/>
   <path style="fill:#336699" d="M1491 262l-2 -13 -23 0c0,9 0,18 0,29l0 69 28 0 0 -58c0,-15 10,-21 17,-21 12,0 16,10 16,22l0 57 27 0 0 -60c0,-28 -15,-40 -33,-40 -15,0 -25,8 -30,15l0 0zm-76 44c0,17 -11,20 -18,20 -12,0 -20,-11 -20,-28 0,-19 8,-31 21,-31 9,0 17,8 17,20l0 19zm3 -45l0 0c-5,-8 -13,-14 -26,-14 -23,0 -42,19 -42,51 0,27 15,48 39,48 11,0 21,-5 26,-12l0 0 0 7c0,19 -10,27 -25,27 -11,0 -21,-3 -27,-6l-5 19c8,5 20,7 32,7 50,0 52,-35 52,-55l0 -55c0,-13 0,-22 1,-29l-24 0 -1 12zm-143 27c0,-10 6,-23 19,-23 13,0 17,12 17,23l-36 0zm61 18c0,-3 0,-7 0,-11 0,-31 -16,-48 -41,-48 -29,0 -46,24 -46,52 0,31 18,50 49,50 13,0 25,-3 33,-6l-4 -18c-7,2 -14,4 -25,4 -14,0 -27,-7 -27,-23l61 0zm-169 36c6,4 17,7 28,7 26,0 41,-13 41,-31 0,-14 -8,-23 -26,-30 -11,-5 -15,-8 -15,-13 0,-6 4,-10 12,-10 8,0 15,3 20,5l5 -18c-6,-3 -15,-5 -26,-5 -22,0 -37,13 -37,31 0,10 7,21 26,28 11,5 15,8 15,14 0,6 -5,10 -14,10 -9,0 -19,-4 -24,-7l-5 19zm-82 -80l-1 -13 -23 0c0,9 0,18 0,29l0 69 27 0 0 -58c0,-15 11,-21 18,-21 11,0 15,10 15,22l0 57 28 0 0 -60c0,-28 -15,-40 -34,-40 -14,0 -25,8 -29,15l-1 0zm-5 -109c1,-10 6,-23 19,-23 13,0 18,13 18,23l-37 0zm61 18c0,-3 1,-6 1,-10 0,-32 -16,-49 -41,-49 -30,0 -47,25 -47,53 0,30 18,49 49,49 13,0 25,-2 34,-6l-4 -17c-7,2 -15,4 -25,4 -15,0 -27,-7 -28,-24l61 0zm-245 1c0,16 -11,20 -17,20 -13,0 -21,-12 -21,-29 0,-18 9,-30 21,-30 9,0 17,7 17,20l0 19zm3 -46l0 0c-5,-8 -13,-14 -26,-14 -22,0 -42,20 -42,52 0,27 15,48 40,48 11,0 20,-5 25,-13l0 0 0 7c0,19 -10,27 -25,27 -11,0 -20,-3 -26,-6l-6 20c8,4 21,7 33,7 49,0 51,-36 51,-55l0 -55c0,-14 1,-23 1,-30l-23 0 -2 12zm-110 5l-1 -17 -23 0c0,9 1,19 1,31l0 67 27 0 0 -50c0,-17 9,-25 22,-25 2,0 5,0 7,1l0 -25c-2,-1 -4,-1 -6,-1 -10,0 -21,7 -26,19l-1 0zm-74 48c0,12 -10,17 -17,17 -7,0 -13,-4 -13,-14 0,-14 15,-17 30,-17l0 14zm320 168l0 -135 0 0 0 -58c0,-29 -14,-42 -32,-42 -9,0 -20,4 -28,14l0 0 0 -55 -27 0 0 141 27 0 0 -59c0,-15 10,-19 17,-19 12,0 16,9 16,22l0 56 0 0 0 135 27 0zm-364 -209c7,-4 16,-7 25,-7 15,0 18,7 18,17 -32,0 -55,12 -55,37 0,16 11,29 30,29 12,0 22,-4 27,-12l1 0 2 10 24 0c-1,-6 -1,-14 -1,-23l0 -36c0,-21 -9,-41 -41,-41 -16,0 -28,5 -35,9l5 17z"/>
   <path style="fill:#336699" d="M1598 288c1,-10 7,-23 20,-23 13,0 17,12 17,23l-37 0zm62 18c0,-3 0,-7 0,-11 0,-31 -16,-48 -41,-48 -30,0 -46,24 -46,52 0,31 18,50 49,50 13,0 25,-3 33,-6l-4 -18c-7,2 -15,4 -25,4 -14,0 -27,-7 -28,-23l62 0z"/>
  </g>
 </g>
</svg>
