<?xml version="1.0" encoding="UTF-8"?>
<!DOCTYPE svg PUBLIC "-//W3C//DTD SVG 1.1//EN" "http://www.w3.org/Graphics/SVG/1.1/DTD/svg11.dtd">
<!-- Creator: CorelDRAW X8 -->
<svg xmlns="http://www.w3.org/2000/svg" xml:space="preserve" width="300.076mm" height="199.872mm" version="1.1" style="shape-rendering:geometricPrecision; text-rendering:geometricPrecision; image-rendering:optimizeQuality; fill-rule:evenodd; clip-rule:evenodd"
viewBox="0 0 1322 881"
 xmlns:xlink="http://www.w3.org/1999/xlink">
 <defs>
  <style type="text/css">
   <![CDATA[
    .str0 {stroke:#2B2A29;stroke-width:0.335783;stroke-linejoin:bevel}
    .fil0 {fill:none}
   ]]>
  </style>
 </defs>
 <g id="Livello_x0020_1">
  <metadata id="CorelCorpID_0Corel-Layer"/>
  <g id="_2497355746912">
   <path class="fil0 str0" d="M0 87l0 770c0,7 3,13 9,18 5,4 12,5 18,4 181,-41 366,-62 551,-63 52,0 104,3 155,11 187,39 377,57 568,53 12,0 21,-10 21,-22l0 -772c0,-6 -2,-11 -6,-15 -5,-5 -10,-7 -16,-7 -191,4 -382,-14 -569,-53 -51,-7 -103,-11 -155,-11 -188,1 -376,23 -559,65 -10,3 -17,12 -17,22z"/>
   <path class="fil0 str0" d="M84 122c0,-10 -8,-17 -18,-17 -9,0 -17,7 -17,17 0,10 8,17 17,17 10,0 18,-7 18,-17z"/>
   <path class="fil0 str0" d="M84 803c0,-10 -8,-18 -18,-18 -9,0 -17,8 -17,18 0,9 8,17 17,17 10,0 18,-8 18,-17z"/>
   <path class="fil0 str0" d="M1273 131c0,-10 -7,-17 -17,-17 -10,0 -17,7 -17,17 0,10 7,17 17,17 10,0 17,-7 17,-17z"/>
   <path class="fil0 str0" d="M1273 814c0,-9 -7,-17 -17,-17 -10,0 -17,8 -17,17 0,10 7,18 17,18 10,0 17,-8 17,-18z"/>
  </g>
 </g>
</svg>
