<?xml version="1.0" encoding="UTF-8"?>
<!DOCTYPE svg PUBLIC "-//W3C//DTD SVG 1.1//EN" "http://www.w3.org/Graphics/SVG/1.1/DTD/svg11.dtd">
<!-- Creator: CorelDRAW X8 -->
<svg xmlns="http://www.w3.org/2000/svg" xml:space="preserve" width="200.076mm" height="200.076mm" version="1.1" style="shape-rendering:geometricPrecision; text-rendering:geometricPrecision; image-rendering:optimizeQuality; fill-rule:evenodd; clip-rule:evenodd"
viewBox="0 0 597 597"
 xmlns:xlink="http://www.w3.org/1999/xlink">
 <defs>
  <style type="text/css">
   <![CDATA[
    .str0 {stroke:#2B2A29;stroke-width:0.22722;stroke-linejoin:bevel}
    .fil0 {fill:none}
   ]]>
  </style>
 </defs>
 <g id="Livello_x0020_1">
  <metadata id="CorelCorpID_0Corel-Layer"/>
  <g id="_2497355728576">
   <path class="fil0 str0" d="M596 298c0,-164 -133,-298 -298,-298 -164,0 -298,134 -298,298 0,165 134,298 298,298 165,0 298,-133 298,-298z"/>
   <path class="fil0 str0" d="M312 45c0,-8 -6,-14 -14,-14 -7,0 -13,6 -13,14 0,7 6,13 13,13 8,0 14,-6 14,-13z"/>
   <path class="fil0 str0" d="M312 552c0,-8 -6,-14 -14,-14 -7,0 -13,6 -13,14 0,7 6,13 13,13 8,0 14,-6 14,-13z"/>
   <path class="fil0 str0" d="M565 298c0,-7 -6,-13 -13,-13 -8,0 -14,6 -14,13 0,8 6,14 14,14 7,0 13,-6 13,-14z"/>
   <path class="fil0 str0" d="M58 298c0,-7 -6,-13 -13,-13 -8,0 -14,6 -14,13 0,8 6,14 14,14 7,0 13,-6 13,-14z"/>
  </g>
 </g>
</svg>
