<?xml version="1.0" encoding="UTF-8"?>
<!DOCTYPE svg PUBLIC "-//W3C//DTD SVG 1.1//EN" "http://www.w3.org/Graphics/SVG/1.1/DTD/svg11.dtd">
<!-- Creator: CorelDRAW X8 -->
<svg xmlns="http://www.w3.org/2000/svg" xml:space="preserve" width="300.076mm" height="200.076mm" version="1.1" style="shape-rendering:geometricPrecision; text-rendering:geometricPrecision; image-rendering:optimizeQuality; fill-rule:evenodd; clip-rule:evenodd"
viewBox="0 0 1322 882"
 xmlns:xlink="http://www.w3.org/1999/xlink">
 <defs>
  <style type="text/css">
   <![CDATA[
    .str0 {stroke:#2B2A29;stroke-width:0.335783;stroke-linejoin:bevel}
    .fil0 {fill:none}
   ]]>
  </style>
 </defs>
 <g id="Livello_x0020_1">
  <metadata id="CorelCorpID_0Corel-Layer"/>
  <g id="_2497355741568">
   <path class="fil0 str0" d="M0 441c0,243 296,440 661,440 365,0 661,-197 661,-440 0,-244 -296,-441 -661,-441 -365,0 -661,197 -661,441z"/>
   <path class="fil0 str0" d="M681 66c0,-11 -9,-19 -20,-19 -11,0 -20,8 -20,19 0,11 9,20 20,20 11,0 20,-9 20,-20z"/>
   <path class="fil0 str0" d="M86 441c0,-11 -9,-20 -20,-20 -11,0 -19,9 -19,20 0,11 8,20 19,20 11,0 20,-9 20,-20z"/>
   <path class="fil0 str0" d="M681 815c0,-11 -9,-20 -20,-20 -11,0 -20,9 -20,20 0,11 9,20 20,20 11,0 20,-9 20,-20z"/>
   <path class="fil0 str0" d="M1276 441c0,-11 -9,-20 -20,-20 -11,0 -20,9 -20,20 0,11 9,20 20,20 11,0 20,-9 20,-20z"/>
  </g>
 </g>
</svg>
