<?xml version="1.0" encoding="UTF-8"?>
<!DOCTYPE svg PUBLIC "-//W3C//DTD SVG 1.1//EN" "http://www.w3.org/Graphics/SVG/1.1/DTD/svg11.dtd">
<!-- Creator: CorelDRAW X8 -->
<svg xmlns="http://www.w3.org/2000/svg" xml:space="preserve" width="299.576mm" height="159.767mm" version="1.1" style="shape-rendering:geometricPrecision; text-rendering:geometricPrecision; image-rendering:optimizeQuality; fill-rule:evenodd; clip-rule:evenodd"
viewBox="0 0 1318 703"
 xmlns:xlink="http://www.w3.org/1999/xlink">
 <defs>
  <style type="text/css">
   <![CDATA[
    .str0 {stroke:#2B2A29;stroke-width:0.335247}
    .fil1 {fill:none;fill-rule:nonzero}
    .fil0 {fill:#2B2A29;fill-rule:nonzero}
   ]]>
  </style>
 </defs>
 <g id="Livello_x0020_1">
  <metadata id="CorelCorpID_0Corel-Layer"/>
  <g>
   <path class="fil0" d="M659 1l0 -1 0 0 21 0 20 0 21 0 21 1 20 0 21 0 21 1 20 1 21 0 20 1 21 1 21 1 20 1 21 1 20 1 21 1 21 2 20 1 21 2 20 1 21 2 21 2 20 2 21 2 20 2 21 2 20 2 21 2 20 2 21 3 20 2 21 3 0 1 -21 -3 -20 -3 -21 -2 -20 -2 -21 -3 -20 -2 -21 -2 -20 -2 -21 -2 -21 -1 -20 -2 -21 -2 -20 -2 -21 -1 -20 -1 -21 -2 -21 -1 -20 -1 -21 -1 -20 -1 -21 -1 -21 -1 -20 -1 -21 -1 -21 0 -20 -1 -21 0 -20 -1 -21 0 -21 0 -20 0 -21 0 0 0zm-658 41l-1 0 0 0 21 -3 20 -2 21 -3 20 -2 21 -2 20 -2 21 -2 20 -2 21 -2 20 -2 21 -2 21 -2 20 -1 21 -2 20 -1 21 -2 21 -1 20 -1 21 -1 20 -1 21 -1 21 -1 20 -1 21 0 20 -1 21 -1 21 0 20 0 21 -1 21 0 20 0 21 0 0 1 -21 0 -20 0 -21 0 -21 0 -20 1 -21 0 -20 1 -21 0 -21 1 -20 1 -21 1 -21 1 -20 1 -21 1 -20 1 -21 1 -21 2 -20 1 -21 1 -20 2 -21 2 -20 2 -21 1 -21 2 -20 2 -21 2 -20 2 -21 3 -20 2 -21 2 -20 3 -21 3 1 -1zm-1 619l0 -619 1 0 0 619 -1 0 0 0zm659 41l0 1 0 0 -21 0 -20 0 -21 0 -21 -1 -20 0 -21 -1 -21 0 -20 -1 -21 0 -20 -1 -21 -1 -21 -1 -20 -1 -21 -1 -20 -1 -21 -2 -21 -1 -20 -1 -21 -2 -20 -1 -21 -2 -21 -2 -20 -2 -21 -2 -20 -2 -21 -2 -20 -2 -21 -2 -20 -2 -21 -3 -20 -2 -21 -3 0 -1 21 3 20 2 21 3 20 2 21 2 20 3 21 2 20 2 21 2 21 1 20 2 21 2 20 1 21 2 20 1 21 2 21 1 20 1 21 1 20 1 21 1 21 1 20 1 21 1 21 0 20 1 21 0 20 1 21 0 21 0 20 0 21 0 0 0zm658 -41l1 0 0 0 -21 3 -20 2 -21 3 -20 2 -21 2 -20 2 -21 2 -20 2 -21 2 -20 2 -21 2 -21 2 -20 1 -21 2 -20 1 -21 1 -21 2 -20 1 -21 1 -20 1 -21 1 -21 1 -20 1 -21 0 -20 1 -21 0 -21 1 -20 0 -21 1 -21 0 -20 0 -21 0 0 -1 21 0 20 0 21 0 21 0 20 -1 21 0 20 -1 21 0 21 -1 20 -1 21 -1 21 -1 20 -1 21 -1 20 -1 21 -1 21 -2 20 -1 21 -2 20 -1 21 -2 20 -2 21 -1 21 -2 20 -2 21 -2 20 -3 21 -2 20 -2 21 -3 20 -2 21 -3 -1 1zm1 -619l0 619 -1 0 0 -619 1 0 0 0zm0 0l0 0 0 0 0 0 0 1 0 -1z"/>
  </g>
  <path class="fil1 str0" d="M89 101c0,-13 -11,-23 -23,-23 -13,0 -23,10 -23,23 0,12 10,23 23,23 12,0 23,-11 23,-23z"/>
  <path class="fil1 str0" d="M1277 101c0,-13 -11,-23 -24,-23 -12,0 -23,10 -23,23 0,12 11,23 23,23 13,0 24,-11 24,-23z"/>
  <path class="fil1 str0" d="M89 602c0,-12 -11,-23 -23,-23 -13,0 -23,11 -23,23 0,13 10,23 23,23 12,0 23,-10 23,-23z"/>
  <path class="fil1 str0" d="M1277 602c0,-12 -11,-23 -24,-23 -12,0 -23,11 -23,23 0,13 11,23 23,23 13,0 24,-10 24,-23z"/>
 </g>
</svg>
