<?xml version="1.0" encoding="UTF-8"?>
<!DOCTYPE svg PUBLIC "-//W3C//DTD SVG 1.1//EN" "http://www.w3.org/Graphics/SVG/1.1/DTD/svg11.dtd">
<!-- Creator: CorelDRAW X8 -->
<svg xmlns="http://www.w3.org/2000/svg" xml:space="preserve" width="300.084mm" height="199.876mm" version="1.1" style="shape-rendering:geometricPrecision; text-rendering:geometricPrecision; image-rendering:optimizeQuality; fill-rule:evenodd; clip-rule:evenodd"
viewBox="0 0 1322 881"
 xmlns:xlink="http://www.w3.org/1999/xlink">
 <defs>
  <style type="text/css">
   <![CDATA[
    .str0 {stroke:#2B2A29;stroke-width:0.335791;stroke-linejoin:bevel}
    .fil0 {fill:none}
   ]]>
  </style>
 </defs>
 <g id="Livello_x0020_1">
  <metadata id="CorelCorpID_0Corel-Layer"/>
  <g id="_2497355743488">
   <path class="fil0 str0" d="M90 822c0,2 1,4 4,4 187,36 377,55 567,55 191,0 381,-19 568,-55 2,0 4,-2 3,-4 -9,-93 10,-186 54,-268 48,-68 48,-159 0,-228 -44,-81 -63,-174 -54,-267 1,-2 -1,-4 -3,-5 -187,-36 -377,-54 -568,-54 -190,0 -380,18 -567,54 -3,1 -4,3 -4,5 9,93 -10,185 -53,267 -49,69 -49,160 0,228 43,82 62,175 53,268z"/>
   <path class="fil0 str0" d="M181 771c0,-13 -10,-23 -23,-23 -13,0 -23,10 -23,23 0,13 10,23 23,23 13,0 23,-10 23,-23z"/>
   <path class="fil0 str0" d="M181 110c0,-13 -10,-23 -23,-23 -13,0 -23,10 -23,23 0,12 10,23 23,23 13,0 23,-11 23,-23z"/>
   <path class="fil0 str0" d="M1187 771c0,-13 -10,-23 -23,-23 -13,0 -23,10 -23,23 0,13 10,23 23,23 13,0 23,-10 23,-23z"/>
   <path class="fil0 str0" d="M1187 110c0,-13 -10,-23 -23,-23 -13,0 -23,10 -23,23 0,12 10,23 23,23 13,0 23,-11 23,-23z"/>
  </g>
 </g>
</svg>
