<?xml version="1.0" encoding="UTF-8"?>
<!DOCTYPE svg PUBLIC "-//W3C//DTD SVG 1.1//EN" "http://www.w3.org/Graphics/SVG/1.1/DTD/svg11.dtd">
<!-- Creator: CorelDRAW X8 -->
<svg xmlns="http://www.w3.org/2000/svg" xml:space="preserve" width="300.953mm" height="199.858mm" version="1.1" style="shape-rendering:geometricPrecision; text-rendering:geometricPrecision; image-rendering:optimizeQuality; fill-rule:evenodd; clip-rule:evenodd"
viewBox="0 0 1330 883"
 xmlns:xlink="http://www.w3.org/1999/xlink">
 <defs>
  <style type="text/css">
   <![CDATA[
    .str0 {stroke:#2B2A29;stroke-width:0.336721;stroke-linejoin:bevel}
    .fil0 {fill:none}
   ]]>
  </style>
 </defs>
 <g id="Livello_x0020_1">
  <metadata id="CorelCorpID_0Corel-Layer"/>
  <g id="_2497355749312">
   <path class="fil0 str0" d="M874 75c87,67 184,119 288,156 97,22 166,108 168,207 1,100 -71,188 -167,212 -104,36 -201,89 -288,156 -121,102 -298,103 -420,2 -87,-66 -184,-119 -287,-156 -97,-22 -167,-108 -168,-207 -1,-100 71,-188 167,-212 104,-38 201,-91 288,-157 121,-101 297,-101 419,-1z"/>
   <path class="fil0 str0" d="M688 66c0,-12 -10,-23 -23,-23 -13,0 -23,11 -23,23 0,13 10,24 23,24 13,0 23,-11 23,-24z"/>
   <path class="fil0 str0" d="M1285 442c0,-12 -11,-23 -24,-23 -12,0 -23,11 -23,23 0,13 11,24 23,24 13,0 24,-11 24,-24z"/>
   <path class="fil0 str0" d="M687 817c0,-13 -10,-23 -23,-23 -13,0 -23,10 -23,23 0,13 10,23 23,23 13,0 23,-10 23,-23z"/>
   <path class="fil0 str0" d="M92 442c0,-12 -11,-23 -24,-23 -12,0 -23,11 -23,23 0,13 11,24 23,24 13,0 24,-11 24,-24z"/>
  </g>
 </g>
</svg>
