<?xml version="1.0" encoding="UTF-8"?>
<!DOCTYPE svg PUBLIC "-//W3C//DTD SVG 1.1//EN" "http://www.w3.org/Graphics/SVG/1.1/DTD/svg11.dtd">
<!-- Creator: CorelDRAW X8 -->
<svg xmlns="http://www.w3.org/2000/svg" xml:space="preserve" width="300.074mm" height="300.074mm" version="1.1" style="shape-rendering:geometricPrecision; text-rendering:geometricPrecision; image-rendering:optimizeQuality; fill-rule:evenodd; clip-rule:evenodd"
viewBox="0 0 1322 1322"
 xmlns:xlink="http://www.w3.org/1999/xlink">
 <defs>
  <style type="text/css">
   <![CDATA[
    .str0 {stroke:#2B2A29;stroke-width:0.33578;stroke-linejoin:bevel}
    .fil0 {fill:none}
   ]]>
  </style>
 </defs>
 <g id="Livello_x0020_1">
  <metadata id="CorelCorpID_0Corel-Layer"/>
  <g id="_2497355728448">
   <path class="fil0 str0" d="M1317 675c3,-4 5,-9 5,-14 0,-5 -2,-10 -5,-13l-642 -642c-4,-4 -9,-6 -14,-6 -5,0 -10,2 -13,6l-642 642c-4,3 -6,8 -6,13 0,5 2,10 6,14l642 642c3,3 8,5 13,5 5,0 10,-2 14,-5l642 -642z"/>
   <g>
    <path class="fil0 str0" d="M1255 661c0,-11 -9,-20 -20,-20 -11,0 -19,9 -19,20 0,11 8,20 19,20 11,0 20,-9 20,-20z"/>
    <path class="fil0 str0" d="M107 661c0,-11 -9,-20 -20,-20 -11,0 -20,9 -20,20 0,11 9,20 20,20 11,0 20,-9 20,-20z"/>
    <path class="fil0 str0" d="M681 1235c0,-11 -9,-19 -20,-19 -11,0 -20,8 -20,19 0,11 9,20 20,20 11,0 20,-9 20,-20z"/>
    <path class="fil0 str0" d="M681 87c0,-11 -9,-20 -20,-20 -11,0 -20,9 -20,20 0,11 9,20 20,20 11,0 20,-9 20,-20z"/>
   </g>
  </g>
 </g>
</svg>
