<?xml version="1.0" encoding="UTF-8"?>
<!DOCTYPE svg PUBLIC "-//W3C//DTD SVG 1.1//EN" "http://www.w3.org/Graphics/SVG/1.1/DTD/svg11.dtd">
<!-- Creator: CorelDRAW X8 -->
<svg xmlns="http://www.w3.org/2000/svg" xml:space="preserve" width="200.104mm" height="200.104mm" version="1.1" style="shape-rendering:geometricPrecision; text-rendering:geometricPrecision; image-rendering:optimizeQuality; fill-rule:evenodd; clip-rule:evenodd"
viewBox="0 0 597 597"
 xmlns:xlink="http://www.w3.org/1999/xlink">
 <defs>
  <style type="text/css">
   <![CDATA[
    .str0 {stroke:#2B2A29;stroke-width:0.227251;stroke-linejoin:bevel}
    .fil0 {fill:none}
   ]]>
  </style>
 </defs>
 <g id="Livello_x0020_1">
  <metadata id="CorelCorpID_0Corel-Layer"/>
  <g id="_2497355752064">
   <path class="fil0 str0" d="M269 40c-86,-27 -176,-41 -266,-40 -2,0 -3,1 -3,3 -1,90 13,180 40,266l0 59c-27,86 -41,176 -40,266 0,1 1,3 3,3 90,0 180,-13 266,-40l59 0c86,27 176,40 266,40 1,0 3,-2 3,-3 0,-90 -13,-180 -40,-266l0 -59c27,-86 40,-176 40,-266 0,-2 -2,-3 -3,-3 -90,-1 -180,13 -266,40l-59 0z"/>
   <path class="fil0 str0" d="M544 298c0,-8 -7,-15 -16,-15 -8,0 -15,7 -15,15 0,9 7,16 15,16 9,0 16,-7 16,-16z"/>
   <path class="fil0 str0" d="M84 298c0,-8 -7,-15 -16,-15 -8,0 -15,7 -15,15 0,9 7,16 15,16 9,0 16,-7 16,-16z"/>
  </g>
 </g>
</svg>
